# MagicaVoxel @ Ephtracy

# group
o 

# material
mtllib tile20.mtl
usemtl palette

# normals
vn -1 0 0
vn 1 0 0
vn 0 0 1
vn 0 0 -1
vn 0 -1 0
vn 0 1 0

# texcoords
vt 0.759766 0.5
vt 0.763672 0.5
vt 0.802734 0.5
vt 0.822266 0.5
vt 0.826172 0.5
vt 0.830078 0.5
vt 0.833984 0.5
vt 0.970703 0.5
vt 0.974609 0.5
vt 0.978516 0.5

# verts
v -2 0 3
v -2 0 -3
v -2 0.2 3
v -2 0.2 -3
v -1 0.1 -1.3
v -1 0.1 -1.4
v -1 0.2 -1.3
v -1 0.2 -1.4
v -0.9 0.1 -1.4
v -0.9 0.1 -1.6
v -0.9 0.2 -1.4
v -0.9 0.2 -1.6
v -0.8 0.1 -1.6
v -0.8 0.1 -1.7
v -0.8 0.2 -1.6
v -0.8 0.2 -1.7
v -0.7 0.1 -1.7
v -0.7 0.1 -1.8
v -0.7 0.2 -1.7
v -0.7 0.2 -1.8
v -0.6 0.1 -1.8
v -0.6 0.1 -1.9
v -0.6 0.1 -2.1
v -0.6 0.2 -1.8
v -0.6 0.2 -1.9
v -0.6 0.2 -2.1
v -0.5 0.1 -2.1
v -0.5 0.1 -2.2
v -0.5 0.2 -2.1
v -0.5 0.2 -2.2
v -0.2 0.1 -1.7
v -0.2 0.1 -1.8
v -0.2 0.2 -1.7
v -0.2 0.2 -1.8
v -0.0999999 0.1 -1.8
v -0.0999999 0.1 -1.9
v -0.0999999 0.2 -1.8
v -0.0999999 0.2 -1.9
v 0.9 0.1 -2.1
v 0.9 0.1 -2.2
v 0.9 0.2 -2.1
v 0.9 0.2 -2.2
v 1.8 0.1 2.8
v 1.8 0.1 -0.8
v 1.8 0.1 -1
v 1.8 0.1 -2.8
v 1.8 0.2 2.8
v 1.8 0.2 -0.8
v 1.8 0.2 -1
v 1.8 0.2 -2.8
v -1.8 0.1 2.8
v -1.8 0.1 -0.8
v -1.8 0.1 -1
v -1.8 0.1 -2.8
v -1.8 0.2 2.8
v -1.8 0.2 -0.8
v -1.8 0.2 -1
v -1.8 0.2 -2.8
v -0.6 0.1 -1.3
v -0.6 0.1 -1.6
v -0.6 0.2 -1.3
v -0.6 0.2 -1.6
v -0.4 0.1 -1.7
v -0.4 0.1 -1.8
v -0.4 0.2 -1.7
v -0.4 0.2 -1.8
v -0.3 0.1 -1.8
v -0.3 0.1 -1.9
v -0.3 0.2 -1.8
v -0.3 0.2 -1.9
v -0.2 0.1 -1.6
v -0.2 0.1 -1.7
v -0.2 0.2 -1.6
v -0.2 0.2 -1.7
v -0.0999999 0.1 -1.7
v -0.0999999 0.1 -1.8
v -0.0999999 0.2 -1.7
v -0.0999999 0.2 -1.8
v 2.38419e-07 0.1 -1.8
v 2.38419e-07 0.1 -1.9
v 2.38419e-07 0.2 -1.8
v 2.38419e-07 0.2 -1.9
v 0.1 0.1 -2.1
v 0.1 0.1 -2.2
v 0.1 0.2 -2.1
v 0.1 0.2 -2.2
v 0.2 0.1 -1.9
v 0.2 0.1 -2
v 0.2 0.2 -1.9
v 0.2 0.2 -2
v 1 0.1 -2
v 1 0.1 -2.1
v 1 0.1 -2.2
v 1 0.2 -2
v 1 0.2 -2.2
v 2 0 3
v 2 0 -3
v 2 0.2 3
v 2 0.2 -3
v -2 0 3
v -2 0.2 3
v 2 0 3
v 2 0.2 3
v -1.8 0.1 -0.8
v -1.8 0.2 -0.8
v 1.8 0.1 -0.8
v 1.8 0.2 -0.8
v -1 0.1 -1.3
v -1 0.2 -1.3
v -0.9 0.1 -1.3
v -0.9 0.2 -1.3
v -0.6 0.1 -1.3
v -0.6 0.2 -1.3
v -0.6 0.1 -1.6
v -0.6 0.2 -1.6
v -0.5 0.1 -1.6
v -0.5 0.2 -1.6
v -0.2 0.1 -1.6
v -0.2 0.2 -1.6
v -0.2 0.1 -1.7
v -0.2 0.2 -1.7
v -0.0999999 0.1 -1.7
v -0.0999999 0.2 -1.7
v -0.4 0.1 -1.8
v -0.4 0.2 -1.8
v -0.3 0.1 -1.8
v -0.3 0.2 -1.8
v -0.0999999 0.1 -1.8
v -0.0999999 0.2 -1.8
v 2.38419e-07 0.1 -1.8
v 2.38419e-07 0.2 -1.8
v -0.3 0.1 -1.9
v -0.3 0.2 -1.9
v -0.0999999 0.1 -1.9
v -0.0999999 0.2 -1.9
v 2.38419e-07 0.1 -1.9
v 2.38419e-07 0.2 -1.9
v 0.2 0.1 -1.9
v 0.2 0.2 -1.9
v 0.2 0.1 -2
v 0.2 0.2 -2
v 1 0.1 -2
v 1 0.2 -2
v -1.8 0.1 -2.8
v -1.8 0.2 -2.8
v 1.8 0.1 -2.8
v 1.8 0.2 -2.8
v -1.8 0.1 2.8
v -1.8 0.2 2.8
v 1.8 0.1 2.8
v 1.8 0.2 2.8
v -1.8 0.1 -1
v -1.8 0.2 -1
v 1.8 0.1 -1
v 1.8 0.2 -1
v -1 0.1 -1.4
v -1 0.2 -1.4
v -0.9 0.1 -1.4
v -0.9 0.2 -1.4
v -0.9 0.1 -1.6
v -0.9 0.2 -1.6
v -0.8 0.1 -1.6
v -0.8 0.2 -1.6
v -0.8 0.1 -1.7
v -0.8 0.2 -1.7
v -0.7 0.1 -1.7
v -0.7 0.2 -1.7
v -0.4 0.1 -1.7
v -0.4 0.2 -1.7
v -0.2 0.1 -1.7
v -0.2 0.2 -1.7
v -0.7 0.1 -1.8
v -0.7 0.2 -1.8
v -0.6 0.1 -1.8
v -0.6 0.2 -1.8
v -0.2 0.1 -1.8
v -0.2 0.2 -1.8
v -0.0999999 0.1 -1.8
v -0.0999999 0.2 -1.8
v -0.6 0.1 -2.1
v -0.6 0.2 -2.1
v -0.5 0.1 -2.1
v -0.5 0.2 -2.1
v 0.1 0.1 -2.1
v 0.1 0.2 -2.1
v 0.9 0.1 -2.1
v 0.9 0.2 -2.1
v -0.5 0.1 -2.2
v -0.5 0.2 -2.2
v -0.4 0.1 -2.2
v -0.4 0.2 -2.2
v 2.38419e-07 0.1 -2.2
v 2.38419e-07 0.2 -2.2
v 0.1 0.1 -2.2
v 0.1 0.2 -2.2
v 0.9 0.1 -2.2
v 0.9 0.2 -2.2
v 1 0.1 -2.2
v 1 0.2 -2.2
v -2 0 -3
v -2 0.2 -3
v 2 0 -3
v 2 0.2 -3
v -2 0 3
v 2 0 3
v -1.8 0 2.8
v 1.8 0 2.8
v -1.8 0 -0.8
v 1.8 0 -0.8
v -1.8 0 -1
v 1.8 0 -1
v -0.7 0 -1.9
v -0.6 0 -1.9
v -0.8 0 -2.1
v -0.7 0 -2.1
v 0.1 0 -2.1
v 0.9 0 -2.1
v 1 0 -2.1
v 1.1 0 -2.1
v -0.8 0 -2.2
v -0.6 0 -2.2
v 0.1 0 -2.2
v 0.9 0 -2.2
v 1 0 -2.2
v 1.1 0 -2.2
v 0.9 0 -2.3
v 1 0 -2.3
v -1.8 0 -2.8
v 1.8 0 -2.8
v -2 0 -3
v 2 0 -3
v -1.8 0.1 2.8
v 1.8 0.1 2.8
v -1.8 0.1 -0.8
v 1.8 0.1 -0.8
v -1.8 0.1 -1
v 1.8 0.1 -1
v -1 0.1 -1.3
v -0.9 0.1 -1.3
v -0.6 0.1 -1.3
v -1 0.1 -1.4
v -0.9 0.1 -1.4
v -0.9 0.1 -1.6
v -0.8 0.1 -1.6
v -0.6 0.1 -1.6
v -0.5 0.1 -1.6
v -0.2 0.1 -1.6
v -0.8 0.1 -1.7
v -0.7 0.1 -1.7
v -0.4 0.1 -1.7
v -0.2 0.1 -1.7
v -0.0999999 0.1 -1.7
v -0.7 0.1 -1.8
v -0.6 0.1 -1.8
v -0.4 0.1 -1.8
v -0.3 0.1 -1.8
v -0.2 0.1 -1.8
v -0.0999999 0.1 -1.8
v 2.38419e-07 0.1 -1.8
v -0.7 0.1 -1.9
v -0.6 0.1 -1.9
v -0.3 0.1 -1.9
v -0.0999999 0.1 -1.9
v 2.38419e-07 0.1 -1.9
v 0.2 0.1 -1.9
v 0.2 0.1 -2
v 1 0.1 -2
v -0.8 0.1 -2.1
v -0.7 0.1 -2.1
v -0.6 0.1 -2.1
v -0.5 0.1 -2.1
v 0.1 0.1 -2.1
v 0.9 0.1 -2.1
v 1 0.1 -2.1
v 1.1 0.1 -2.1
v -0.8 0.1 -2.2
v -0.6 0.1 -2.2
v -0.5 0.1 -2.2
v -0.4 0.1 -2.2
v 2.38419e-07 0.1 -2.2
v 0.1 0.1 -2.2
v 0.9 0.1 -2.2
v 1 0.1 -2.2
v 1.1 0.1 -2.2
v 0.9 0.1 -2.3
v 1 0.1 -2.3
v -1.8 0.1 -2.8
v 1.8 0.1 -2.8
v -2 0.2 3
v 2 0.2 3
v -1.8 0.2 2.8
v 1.8 0.2 2.8
v -1.8 0.2 -0.8
v 1.8 0.2 -0.8
v -1.8 0.2 -1
v 1.8 0.2 -1
v -1 0.2 -1.3
v -0.9 0.2 -1.3
v -0.6 0.2 -1.3
v -1 0.2 -1.4
v -0.9 0.2 -1.4
v -0.8 0.2 -1.4
v -0.9 0.2 -1.6
v -0.8 0.2 -1.6
v -0.7 0.2 -1.6
v -0.6 0.2 -1.6
v -0.5 0.2 -1.6
v -0.2 0.2 -1.6
v -0.8 0.2 -1.7
v -0.7 0.2 -1.7
v -0.6 0.2 -1.7
v -0.5 0.2 -1.7
v -0.4 0.2 -1.7
v -0.2 0.2 -1.7
v -0.0999999 0.2 -1.7
v -0.7 0.2 -1.8
v -0.6 0.2 -1.8
v -0.5 0.2 -1.8
v -0.4 0.2 -1.8
v -0.3 0.2 -1.8
v -0.2 0.2 -1.8
v -0.0999999 0.2 -1.8
v 2.38419e-07 0.2 -1.8
v -0.6 0.2 -1.9
v -0.5 0.2 -1.9
v -0.4 0.2 -1.9
v -0.3 0.2 -1.9
v -0.0999999 0.2 -1.9
v 2.38419e-07 0.2 -1.9
v 0.2 0.2 -1.9
v -0.3 0.2 -2
v -0.0999999 0.2 -2
v 0.2 0.2 -2
v 1 0.2 -2
v -0.6 0.2 -2.1
v -0.5 0.2 -2.1
v -0.3 0.2 -2.1
v -0.0999999 0.2 -2.1
v 0.1 0.2 -2.1
v 0.9 0.2 -2.1
v -0.5 0.2 -2.2
v -0.4 0.2 -2.2
v 2.38419e-07 0.2 -2.2
v 0.1 0.2 -2.2
v 0.9 0.2 -2.2
v 1 0.2 -2.2
v -1.8 0.2 -2.8
v 1.8 0.2 -2.8
v -2 0.2 -3
v 2 0.2 -3

# faces
f 3/8/1 2/8/1 1/8/1
f 4/8/1 2/8/1 3/8/1
f 7/1/1 6/1/1 5/1/1
f 8/1/1 6/1/1 7/1/1
f 11/1/1 10/1/1 9/1/1
f 12/1/1 10/1/1 11/1/1
f 15/1/1 14/1/1 13/1/1
f 16/1/1 14/1/1 15/1/1
f 19/1/1 18/1/1 17/1/1
f 20/1/1 18/1/1 19/1/1
f 24/1/1 22/1/1 21/1/1
f 25/6/1 23/6/1 22/6/1
f 25/1/1 22/1/1 24/1/1
f 26/6/1 23/6/1 25/6/1
f 29/5/1 28/5/1 27/5/1
f 30/5/1 28/5/1 29/5/1
f 33/3/1 32/3/1 31/3/1
f 34/3/1 32/3/1 33/3/1
f 37/3/1 36/3/1 35/3/1
f 38/3/1 36/3/1 37/3/1
f 41/5/1 40/5/1 39/5/1
f 42/5/1 40/5/1 41/5/1
f 47/8/1 44/8/1 43/8/1
f 48/8/1 44/8/1 47/8/1
f 49/8/1 46/8/1 45/8/1
f 50/8/1 46/8/1 49/8/1
f 51/8/2 52/8/2 55/8/2
f 55/8/2 52/8/2 56/8/2
f 53/8/2 54/8/2 57/8/2
f 57/8/2 54/8/2 58/8/2
f 59/2/2 60/2/2 61/2/2
f 61/2/2 60/2/2 62/2/2
f 63/2/2 64/2/2 65/2/2
f 65/2/2 64/2/2 66/2/2
f 67/2/2 68/2/2 69/2/2
f 69/2/2 68/2/2 70/2/2
f 71/3/2 72/3/2 73/3/2
f 73/3/2 72/3/2 74/3/2
f 75/3/2 76/3/2 77/3/2
f 77/3/2 76/3/2 78/3/2
f 79/3/2 80/3/2 81/3/2
f 81/3/2 80/3/2 82/3/2
f 83/5/2 84/5/2 85/5/2
f 85/5/2 84/5/2 86/5/2
f 87/5/2 88/5/2 89/5/2
f 89/5/2 88/5/2 90/5/2
f 91/5/2 92/5/2 94/5/2
f 92/5/2 93/5/2 94/5/2
f 94/5/2 93/5/2 95/5/2
f 96/8/2 97/8/2 98/8/2
f 98/8/2 97/8/2 99/8/2
f 102/8/3 101/8/3 100/8/3
f 103/8/3 101/8/3 102/8/3
f 106/8/3 105/8/3 104/8/3
f 107/8/3 105/8/3 106/8/3
f 110/1/3 109/1/3 108/1/3
f 111/1/3 109/1/3 110/1/3
f 112/2/3 111/2/3 110/2/3
f 113/2/3 111/2/3 112/2/3
f 116/2/3 115/2/3 114/2/3
f 117/2/3 115/2/3 116/2/3
f 118/3/3 117/3/3 116/3/3
f 119/3/3 117/3/3 118/3/3
f 122/3/3 121/3/3 120/3/3
f 123/3/3 121/3/3 122/3/3
f 126/2/3 125/2/3 124/2/3
f 127/2/3 125/2/3 126/2/3
f 130/3/3 129/3/3 128/3/3
f 131/3/3 129/3/3 130/3/3
f 134/6/3 133/6/3 132/6/3
f 135/6/3 133/6/3 134/6/3
f 138/5/3 137/5/3 136/5/3
f 139/5/3 137/5/3 138/5/3
f 142/5/3 141/5/3 140/5/3
f 143/5/3 141/5/3 142/5/3
f 146/8/3 145/8/3 144/8/3
f 147/8/3 145/8/3 146/8/3
f 148/8/4 149/8/4 150/8/4
f 150/8/4 149/8/4 151/8/4
f 152/8/4 153/8/4 154/8/4
f 154/8/4 153/8/4 155/8/4
f 156/1/4 157/1/4 158/1/4
f 158/1/4 157/1/4 159/1/4
f 160/1/4 161/1/4 162/1/4
f 162/1/4 161/1/4 163/1/4
f 164/1/4 165/1/4 166/1/4
f 166/1/4 165/1/4 167/1/4
f 168/3/4 169/3/4 170/3/4
f 170/3/4 169/3/4 171/3/4
f 172/1/4 173/1/4 174/1/4
f 174/1/4 173/1/4 175/1/4
f 176/3/4 177/3/4 178/3/4
f 178/3/4 177/3/4 179/3/4
f 180/6/4 181/6/4 182/6/4
f 182/6/4 181/6/4 183/6/4
f 184/5/4 185/5/4 186/5/4
f 186/5/4 185/5/4 187/5/4
f 188/5/4 189/5/4 190/5/4
f 190/5/4 189/5/4 191/5/4
f 190/6/4 191/6/4 192/6/4
f 192/6/4 191/6/4 193/6/4
f 192/5/4 193/5/4 194/5/4
f 194/5/4 193/5/4 195/5/4
f 196/5/4 197/5/4 198/5/4
f 198/5/4 197/5/4 199/5/4
f 200/8/4 201/8/4 202/8/4
f 202/8/4 201/8/4 203/8/4
f 206/8/5 205/8/5 204/8/5
f 207/8/5 205/8/5 206/8/5
f 208/8/5 206/8/5 204/8/5
f 208/9/5 207/9/5 206/9/5
f 209/8/5 205/8/5 207/8/5
f 209/9/5 207/9/5 208/9/5
f 210/8/5 208/8/5 204/8/5
f 210/8/5 209/8/5 208/8/5
f 211/8/5 205/8/5 209/8/5
f 211/8/5 209/8/5 210/8/5
f 212/10/5 211/10/5 210/10/5
f 213/10/5 211/10/5 212/10/5
f 214/10/5 212/10/5 210/10/5
f 215/4/5 213/4/5 212/4/5
f 215/10/5 212/10/5 214/10/5
f 216/10/5 211/10/5 213/10/5
f 217/10/5 211/10/5 216/10/5
f 218/10/5 211/10/5 217/10/5
f 219/10/5 211/10/5 218/10/5
f 220/10/5 214/10/5 210/10/5
f 220/4/5 215/4/5 214/4/5
f 221/4/5 213/4/5 215/4/5
f 221/4/5 215/4/5 220/4/5
f 221/10/5 216/10/5 213/10/5
f 222/4/5 217/4/5 216/4/5
f 222/10/5 216/10/5 221/10/5
f 223/10/5 218/10/5 217/10/5
f 223/4/5 217/4/5 222/4/5
f 224/4/5 219/4/5 218/4/5
f 224/10/5 218/10/5 223/10/5
f 225/10/5 211/10/5 219/10/5
f 225/4/5 219/4/5 224/4/5
f 226/4/5 224/4/5 223/4/5
f 226/10/5 223/10/5 222/10/5
f 226/10/5 222/10/5 221/10/5
f 226/10/5 221/10/5 220/10/5
f 227/10/5 225/10/5 224/10/5
f 227/4/5 224/4/5 226/4/5
f 228/8/5 210/8/5 204/8/5
f 228/10/5 220/10/5 210/10/5
f 228/10/5 227/10/5 226/10/5
f 228/10/5 226/10/5 220/10/5
f 229/10/5 225/10/5 227/10/5
f 229/10/5 227/10/5 228/10/5
f 229/8/5 205/8/5 211/8/5
f 229/10/5 211/10/5 225/10/5
f 230/8/5 228/8/5 204/8/5
f 230/8/5 229/8/5 228/8/5
f 231/8/5 205/8/5 229/8/5
f 231/8/5 229/8/5 230/8/5
f 232/9/6 233/9/6 234/9/6
f 234/9/6 233/9/6 235/9/6
f 236/10/6 237/10/6 238/10/6
f 238/10/6 237/10/6 239/10/6
f 239/10/6 237/10/6 240/10/6
f 236/10/6 238/10/6 241/10/6
f 241/10/6 242/10/6 243/10/6
f 240/10/6 237/10/6 245/10/6
f 245/10/6 237/10/6 246/10/6
f 246/10/6 237/10/6 247/10/6
f 243/10/6 244/10/6 248/10/6
f 247/10/6 237/10/6 251/10/6
f 251/10/6 237/10/6 252/10/6
f 248/10/6 249/10/6 253/10/6
f 250/10/6 251/10/6 255/10/6
f 255/10/6 251/10/6 256/10/6
f 256/10/6 251/10/6 257/10/6
f 252/10/6 237/10/6 258/10/6
f 258/10/6 237/10/6 259/10/6
f 253/10/6 254/10/6 260/10/6
f 248/10/6 253/10/6 260/10/6
f 260/10/6 254/10/6 261/10/6
f 256/10/6 257/10/6 262/10/6
f 257/10/6 258/10/6 262/10/6
f 262/10/6 258/10/6 263/10/6
f 259/10/6 237/10/6 264/10/6
f 264/10/6 237/10/6 265/10/6
f 265/10/6 237/10/6 266/10/6
f 266/10/6 237/10/6 267/10/6
f 243/10/6 248/10/6 268/10/6
f 248/10/6 260/10/6 268/10/6
f 260/4/6 261/4/6 269/4/6
f 268/10/6 260/10/6 269/10/6
f 269/4/6 261/4/6 270/4/6
f 267/10/6 237/10/6 274/10/6
f 274/10/6 237/10/6 275/10/6
f 243/10/6 268/10/6 276/10/6
f 268/4/6 269/4/6 276/4/6
f 269/4/6 270/4/6 276/4/6
f 270/10/6 271/10/6 277/10/6
f 276/4/6 270/4/6 277/4/6
f 277/10/6 271/10/6 278/10/6
f 272/4/6 273/4/6 281/4/6
f 281/4/6 273/4/6 282/4/6
f 274/4/6 275/4/6 283/4/6
f 275/10/6 237/10/6 284/10/6
f 283/4/6 275/4/6 284/4/6
f 282/4/6 283/4/6 285/4/6
f 279/10/6 280/10/6 285/10/6
f 281/10/6 282/10/6 285/10/6
f 276/10/6 277/10/6 285/10/6
f 280/10/6 281/10/6 285/10/6
f 277/10/6 278/10/6 285/10/6
f 278/10/6 279/10/6 285/10/6
f 283/10/6 284/10/6 286/10/6
f 285/4/6 283/4/6 286/4/6
f 236/10/6 241/10/6 287/10/6
f 241/10/6 243/10/6 287/10/6
f 285/10/6 286/10/6 287/10/6
f 276/10/6 285/10/6 287/10/6
f 243/10/6 276/10/6 287/10/6
f 284/10/6 237/10/6 288/10/6
f 287/10/6 286/10/6 288/10/6
f 286/10/6 284/10/6 288/10/6
f 289/8/6 290/8/6 291/8/6
f 291/8/6 290/8/6 292/8/6
f 289/8/6 291/8/6 293/8/6
f 292/8/6 290/8/6 294/8/6
f 289/8/6 293/8/6 295/8/6
f 293/8/6 294/8/6 295/8/6
f 294/8/6 290/8/6 296/8/6
f 295/8/6 294/8/6 296/8/6
f 297/1/6 298/1/6 300/1/6
f 298/2/6 299/2/6 301/2/6
f 300/1/6 298/1/6 301/1/6
f 301/2/6 299/2/6 302/2/6
f 301/1/6 302/1/6 303/1/6
f 302/2/6 299/2/6 304/2/6
f 303/1/6 302/1/6 304/1/6
f 304/2/6 299/2/6 305/2/6
f 305/2/6 299/2/6 306/2/6
f 304/1/6 305/1/6 309/1/6
f 306/2/6 307/2/6 310/2/6
f 309/1/6 305/1/6 310/1/6
f 305/2/6 306/2/6 310/2/6
f 310/2/6 307/2/6 311/2/6
f 307/3/6 308/3/6 312/3/6
f 311/2/6 307/2/6 312/2/6
f 312/3/6 308/3/6 313/3/6
f 313/3/6 308/3/6 314/3/6
f 310/1/6 311/1/6 316/1/6
f 312/2/6 313/2/6 317/2/6
f 316/1/6 311/1/6 317/1/6
f 311/2/6 312/2/6 317/2/6
f 317/2/6 313/2/6 318/2/6
f 318/2/6 313/2/6 319/2/6
f 314/3/6 315/3/6 321/3/6
f 321/3/6 315/3/6 322/3/6
f 317/1/6 318/1/6 324/1/6
f 319/2/6 320/2/6 325/2/6
f 324/1/6 318/1/6 325/1/6
f 318/2/6 319/2/6 325/2/6
f 325/2/6 320/2/6 326/2/6
f 326/2/6 320/2/6 327/2/6
f 322/3/6 323/3/6 328/3/6
f 328/3/6 323/3/6 329/3/6
f 326/6/6 327/6/6 331/6/6
f 327/6/6 328/6/6 331/6/6
f 328/6/6 329/6/6 331/6/6
f 331/6/6 329/6/6 332/6/6
f 329/5/6 330/5/6 333/5/6
f 324/6/6 325/6/6 335/6/6
f 325/5/6 326/5/6 336/5/6
f 335/6/6 325/6/6 336/6/6
f 326/6/6 331/6/6 337/6/6
f 331/7/6 332/7/6 337/7/6
f 332/6/6 329/6/6 338/6/6
f 337/7/6 332/7/6 338/7/6
f 333/5/6 334/5/6 339/5/6
f 329/5/6 333/5/6 339/5/6
f 339/5/6 334/5/6 340/5/6
f 336/5/6 326/5/6 341/5/6
f 326/6/6 337/6/6 342/6/6
f 341/5/6 326/5/6 342/5/6
f 337/6/6 338/6/6 342/6/6
f 338/6/6 329/6/6 343/6/6
f 342/6/6 338/6/6 343/6/6
f 329/5/6 339/5/6 343/5/6
f 343/5/6 339/5/6 344/5/6
f 340/5/6 334/5/6 345/5/6
f 345/5/6 334/5/6 346/5/6
f 289/8/6 295/8/6 347/8/6
f 296/8/6 290/8/6 348/8/6
f 289/8/6 347/8/6 349/8/6
f 347/8/6 348/8/6 349/8/6
f 348/8/6 290/8/6 350/8/6
f 349/8/6 348/8/6 350/8/6
