# MagicaVoxel @ Ephtracy

# group
o 

# material
mtllib tile31.mtl
usemtl palette

# normals
vn -1 0 0
vn 1 0 0
vn 0 0 1
vn 0 0 -1
vn 0 -1 0
vn 0 1 0

# texcoords
vt 0.787109 0.5
vt 0.810547 0.5
vt 0.833984 0.5
vt 0.888672 0.5
vt 0.970703 0.5
vt 0.974609 0.5
vt 0.978516 0.5

# verts
v -2 0 3
v -2 0 -3
v -2 0.2 3
v -2 0.2 -3
v -0.7 0.1 -1.6
v -0.7 0.1 -1.7
v -0.7 0.1 -2.1
v -0.7 0.2 -1.6
v -0.7 0.2 -1.7
v -0.7 0.2 -2.1
v -0.6 0.1 -1.4
v -0.6 0.1 -1.6
v -0.6 0.1 -2.1
v -0.6 0.1 -2.3
v -0.6 0.2 -1.4
v -0.6 0.2 -1.6
v -0.6 0.2 -2.1
v -0.6 0.2 -2.3
v -0.5 0.1 -1.3
v -0.5 0.1 -1.4
v -0.5 0.1 -2.3
v -0.5 0.1 -2.4
v -0.5 0.2 -1.3
v -0.5 0.2 -1.4
v -0.5 0.2 -2.3
v -0.5 0.2 -2.4
v -0.4 0.1 -1.2
v -0.4 0.1 -1.3
v -0.4 0.1 -2.4
v -0.4 0.1 -2.5
v -0.4 0.2 -1.2
v -0.4 0.2 -1.3
v -0.4 0.2 -2.4
v -0.4 0.2 -2.5
v -0.2 0.1 -1.1
v -0.2 0.1 -1.2
v -0.2 0.1 -2.5
v -0.2 0.1 -2.6
v -0.2 0.2 -1.1
v -0.2 0.2 -1.2
v -0.2 0.2 -2.5
v -0.2 0.2 -2.6
v 1.8 0.1 2.8
v 1.8 0.1 -0.8
v 1.8 0.1 -1
v 1.8 0.1 -2.8
v 1.8 0.2 2.8
v 1.8 0.2 -0.8
v 1.8 0.2 -1
v 1.8 0.2 -2.8
v -1.8 0.1 2.8
v -1.8 0.1 -0.8
v -1.8 0.1 -1
v -1.8 0.1 -2.8
v -1.8 0.2 2.8
v -1.8 0.2 -0.8
v -1.8 0.2 -1
v -1.8 0.2 -2.8
v 0.3 0.1 -1.1
v 0.3 0.1 -1.2
v 0.3 0.1 -2.5
v 0.3 0.1 -2.6
v 0.3 0.2 -1.1
v 0.3 0.2 -1.2
v 0.3 0.2 -2.5
v 0.3 0.2 -2.6
v 0.5 0.1 -1.2
v 0.5 0.1 -1.3
v 0.5 0.1 -2.4
v 0.5 0.1 -2.5
v 0.5 0.2 -1.2
v 0.5 0.2 -1.3
v 0.5 0.2 -2.4
v 0.5 0.2 -2.5
v 0.6 0.1 -1.3
v 0.6 0.1 -1.4
v 0.6 0.1 -2.3
v 0.6 0.1 -2.4
v 0.6 0.2 -1.3
v 0.6 0.2 -1.4
v 0.6 0.2 -2.3
v 0.6 0.2 -2.4
v 0.7 0.1 -1.4
v 0.7 0.1 -1.6
v 0.7 0.1 -2.1
v 0.7 0.1 -2.3
v 0.7 0.2 -1.4
v 0.7 0.2 -1.6
v 0.7 0.2 -2.1
v 0.7 0.2 -2.3
v 0.8 0.1 -1.6
v 0.8 0.1 -2.1
v 0.8 0.2 -1.6
v 0.8 0.2 -2.1
v 2 0 3
v 2 0 -3
v 2 0.2 3
v 2 0.2 -3
v -2 0 3
v -2 0.2 3
v 2 0 3
v 2 0.2 3
v -1.8 0.1 -0.8
v -1.8 0.2 -0.8
v 1.8 0.1 -0.8
v 1.8 0.2 -0.8
v -0.2 0.1 -1.1
v -0.2 0.2 -1.1
v 0.3 0.1 -1.1
v 0.3 0.2 -1.1
v -0.4 0.1 -1.2
v -0.4 0.2 -1.2
v -0.2 0.1 -1.2
v -0.2 0.2 -1.2
v 0.3 0.1 -1.2
v 0.3 0.2 -1.2
v 0.5 0.1 -1.2
v 0.5 0.2 -1.2
v -0.5 0.1 -1.3
v -0.5 0.2 -1.3
v -0.4 0.1 -1.3
v -0.4 0.2 -1.3
v 0.5 0.1 -1.3
v 0.5 0.2 -1.3
v 0.6 0.1 -1.3
v 0.6 0.2 -1.3
v -0.6 0.1 -1.4
v -0.6 0.2 -1.4
v -0.5 0.1 -1.4
v -0.5 0.2 -1.4
v 0.6 0.1 -1.4
v 0.6 0.2 -1.4
v 0.7 0.1 -1.4
v 0.7 0.2 -1.4
v -0.7 0.1 -1.6
v -0.7 0.2 -1.6
v -0.6 0.1 -1.6
v -0.6 0.2 -1.6
v 0.7 0.1 -1.6
v 0.7 0.2 -1.6
v 0.8 0.1 -1.6
v 0.8 0.2 -1.6
v -1.8 0.1 -2.8
v -1.8 0.2 -2.8
v 1.8 0.1 -2.8
v 1.8 0.2 -2.8
v -1.8 0.1 2.8
v -1.8 0.2 2.8
v 1.8 0.1 2.8
v 1.8 0.2 2.8
v -1.8 0.1 -1
v -1.8 0.2 -1
v 1.8 0.1 -1
v 1.8 0.2 -1
v -0.7 0.1 -2.1
v -0.7 0.2 -2.1
v -0.6 0.1 -2.1
v -0.6 0.2 -2.1
v 0.7 0.1 -2.1
v 0.7 0.2 -2.1
v 0.8 0.1 -2.1
v 0.8 0.2 -2.1
v -0.6 0.1 -2.3
v -0.6 0.2 -2.3
v -0.5 0.1 -2.3
v -0.5 0.2 -2.3
v 0.6 0.1 -2.3
v 0.6 0.2 -2.3
v 0.7 0.1 -2.3
v 0.7 0.2 -2.3
v -0.5 0.1 -2.4
v -0.5 0.2 -2.4
v -0.4 0.1 -2.4
v -0.4 0.2 -2.4
v 0.5 0.1 -2.4
v 0.5 0.2 -2.4
v 0.6 0.1 -2.4
v 0.6 0.2 -2.4
v -0.4 0.1 -2.5
v -0.4 0.2 -2.5
v -0.2 0.1 -2.5
v -0.2 0.2 -2.5
v 0.3 0.1 -2.5
v 0.3 0.2 -2.5
v 0.5 0.1 -2.5
v 0.5 0.2 -2.5
v -0.2 0.1 -2.6
v -0.2 0.2 -2.6
v 0.2 0.1 -2.6
v 0.2 0.2 -2.6
v 0.3 0.1 -2.6
v 0.3 0.2 -2.6
v -2 0 -3
v -2 0.2 -3
v 2 0 -3
v 2 0.2 -3
v -2 0 3
v 2 0 3
v -1.8 0 2.8
v 1.8 0 2.8
v -1.8 0 -0.8
v 1.8 0 -0.8
v -1.8 0 -1
v 1.8 0 -1
v -1.8 0 -2.8
v 1.8 0 -2.8
v -2 0 -3
v 2 0 -3
v -1.8 0.1 2.8
v 1.8 0.1 2.8
v -1.8 0.1 -0.8
v 1.8 0.1 -0.8
v -1.8 0.1 -1
v 1.8 0.1 -1
v -0.2 0.1 -1.1
v 0.3 0.1 -1.1
v -0.4 0.1 -1.2
v -0.2 0.1 -1.2
v 0.3 0.1 -1.2
v 0.5 0.1 -1.2
v -0.5 0.1 -1.3
v -0.4 0.1 -1.3
v 0.5 0.1 -1.3
v 0.6 0.1 -1.3
v -0.6 0.1 -1.4
v -0.5 0.1 -1.4
v 0.6 0.1 -1.4
v 0.7 0.1 -1.4
v -0.7 0.1 -1.6
v -0.6 0.1 -1.6
v 0.7 0.1 -1.6
v 0.8 0.1 -1.6
v -0.7 0.1 -1.7
v -0.7 0.1 -2.1
v -0.6 0.1 -2.1
v 0.7 0.1 -2.1
v 0.8 0.1 -2.1
v -0.6 0.1 -2.3
v -0.5 0.1 -2.3
v 0.6 0.1 -2.3
v 0.7 0.1 -2.3
v -0.5 0.1 -2.4
v -0.4 0.1 -2.4
v 0.5 0.1 -2.4
v 0.6 0.1 -2.4
v -0.4 0.1 -2.5
v -0.2 0.1 -2.5
v 0.3 0.1 -2.5
v 0.5 0.1 -2.5
v -0.2 0.1 -2.6
v 0.2 0.1 -2.6
v 0.3 0.1 -2.6
v -1.8 0.1 -2.8
v 1.8 0.1 -2.8
v -2 0.2 3
v 2 0.2 3
v -1.8 0.2 2.8
v 1.8 0.2 2.8
v -1.8 0.2 -0.8
v 1.8 0.2 -0.8
v -1.8 0.2 -1
v 1.8 0.2 -1
v -0.2 0.2 -1.1
v 0.3 0.2 -1.1
v -0.4 0.2 -1.2
v -0.2 0.2 -1.2
v -0.0999999 0.2 -1.2
v 0.2 0.2 -1.2
v 0.3 0.2 -1.2
v 0.5 0.2 -1.2
v -0.5 0.2 -1.3
v -0.4 0.2 -1.3
v -0.3 0.2 -1.3
v -0.2 0.2 -1.3
v -0.0999999 0.2 -1.3
v 0.2 0.2 -1.3
v 0.3 0.2 -1.3
v 0.4 0.2 -1.3
v 0.5 0.2 -1.3
v 0.6 0.2 -1.3
v -0.6 0.2 -1.4
v -0.5 0.2 -1.4
v -0.4 0.2 -1.4
v -0.3 0.2 -1.4
v -0.2 0.2 -1.4
v 0.3 0.2 -1.4
v 0.4 0.2 -1.4
v 0.5 0.2 -1.4
v 0.6 0.2 -1.4
v 0.7 0.2 -1.4
v -0.5 0.2 -1.5
v -0.4 0.2 -1.5
v -0.3 0.2 -1.5
v -0.2 0.2 -1.5
v 0.3 0.2 -1.5
v 0.4 0.2 -1.5
v 0.5 0.2 -1.5
v 0.6 0.2 -1.5
v -0.7 0.2 -1.6
v -0.6 0.2 -1.6
v -0.5 0.2 -1.6
v -0.4 0.2 -1.6
v -0.3 0.2 -1.6
v -0.0999999 0.2 -1.6
v 0.2 0.2 -1.6
v 0.3 0.2 -1.6
v 0.4 0.2 -1.6
v 0.5 0.2 -1.6
v 0.6 0.2 -1.6
v 0.7 0.2 -1.6
v 0.8 0.2 -1.6
v -0.7 0.2 -1.7
v -0.6 0.2 -1.7
v -0.5 0.2 -1.7
v -0.3 0.2 -1.7
v -0.0999999 0.2 -1.7
v 2.38419e-07 0.2 -1.7
v 0.1 0.2 -1.7
v 0.2 0.2 -1.7
v 0.3 0.2 -1.7
v 0.4 0.2 -1.7
v 0.6 0.2 -1.7
v 0.7 0.2 -1.7
v -0.3 0.2 -1.8
v -0.0999999 0.2 -1.8
v 2.38419e-07 0.2 -1.8
v 0.1 0.2 -1.8
v 0.2 0.2 -1.8
v 0.3 0.2 -1.8
v 0.4 0.2 -1.8
v -0.3 0.2 -1.9
v -0.0999999 0.2 -1.9
v 2.38419e-07 0.2 -1.9
v 0.1 0.2 -1.9
v 0.2 0.2 -1.9
v 0.3 0.2 -1.9
v 0.4 0.2 -1.9
v -0.6 0.2 -2
v -0.5 0.2 -2
v -0.3 0.2 -2
v -0.0999999 0.2 -2
v 2.38419e-07 0.2 -2
v 0.1 0.2 -2
v 0.2 0.2 -2
v 0.3 0.2 -2
v 0.4 0.2 -2
v 0.6 0.2 -2
v 0.7 0.2 -2
v -0.7 0.2 -2.1
v -0.6 0.2 -2.1
v -0.5 0.2 -2.1
v -0.4 0.2 -2.1
v -0.3 0.2 -2.1
v -0.0999999 0.2 -2.1
v 0.2 0.2 -2.1
v 0.3 0.2 -2.1
v 0.4 0.2 -2.1
v 0.5 0.2 -2.1
v 0.6 0.2 -2.1
v 0.7 0.2 -2.1
v 0.8 0.2 -2.1
v -0.5 0.2 -2.2
v -0.4 0.2 -2.2
v -0.3 0.2 -2.2
v -0.2 0.2 -2.2
v 0.3 0.2 -2.2
v 0.4 0.2 -2.2
v 0.5 0.2 -2.2
v 0.6 0.2 -2.2
v -0.6 0.2 -2.3
v -0.5 0.2 -2.3
v -0.4 0.2 -2.3
v -0.3 0.2 -2.3
v -0.2 0.2 -2.3
v 0.3 0.2 -2.3
v 0.4 0.2 -2.3
v 0.5 0.2 -2.3
v 0.6 0.2 -2.3
v 0.7 0.2 -2.3
v -0.5 0.2 -2.4
v -0.4 0.2 -2.4
v -0.3 0.2 -2.4
v -0.2 0.2 -2.4
v -0.0999999 0.2 -2.4
v 0.2 0.2 -2.4
v 0.3 0.2 -2.4
v 0.4 0.2 -2.4
v 0.5 0.2 -2.4
v 0.6 0.2 -2.4
v -0.4 0.2 -2.5
v -0.2 0.2 -2.5
v -0.0999999 0.2 -2.5
v 0.2 0.2 -2.5
v 0.3 0.2 -2.5
v 0.5 0.2 -2.5
v -0.2 0.2 -2.6
v 0.2 0.2 -2.6
v 0.3 0.2 -2.6
v -1.8 0.2 -2.8
v 1.8 0.2 -2.8
v -2 0.2 -3
v 2 0.2 -3

# faces
f 3/5/1 2/5/1 1/5/1
f 4/5/1 2/5/1 3/5/1
f 8/5/1 6/5/1 5/5/1
f 9/4/1 7/4/1 6/4/1
f 9/5/1 6/5/1 8/5/1
f 10/4/1 7/4/1 9/4/1
f 15/5/1 12/5/1 11/5/1
f 16/5/1 12/5/1 15/5/1
f 17/4/1 14/4/1 13/4/1
f 18/4/1 14/4/1 17/4/1
f 23/5/1 20/5/1 19/5/1
f 24/5/1 20/5/1 23/5/1
f 25/4/1 22/4/1 21/4/1
f 26/4/1 22/4/1 25/4/1
f 31/5/1 28/5/1 27/5/1
f 32/5/1 28/5/1 31/5/1
f 33/4/1 30/4/1 29/4/1
f 34/4/1 30/4/1 33/4/1
f 39/5/1 36/5/1 35/5/1
f 40/5/1 36/5/1 39/5/1
f 41/4/1 38/4/1 37/4/1
f 42/4/1 38/4/1 41/4/1
f 47/5/1 44/5/1 43/5/1
f 48/5/1 44/5/1 47/5/1
f 49/5/1 46/5/1 45/5/1
f 50/5/1 46/5/1 49/5/1
f 51/5/2 52/5/2 55/5/2
f 55/5/2 52/5/2 56/5/2
f 53/5/2 54/5/2 57/5/2
f 57/5/2 54/5/2 58/5/2
f 59/5/2 60/5/2 63/5/2
f 63/5/2 60/5/2 64/5/2
f 61/5/2 62/5/2 65/5/2
f 65/5/2 62/5/2 66/5/2
f 67/5/2 68/5/2 71/5/2
f 71/5/2 68/5/2 72/5/2
f 69/5/2 70/5/2 73/5/2
f 73/5/2 70/5/2 74/5/2
f 75/5/2 76/5/2 79/5/2
f 79/5/2 76/5/2 80/5/2
f 77/5/2 78/5/2 81/5/2
f 81/5/2 78/5/2 82/5/2
f 83/5/2 84/5/2 87/5/2
f 87/5/2 84/5/2 88/5/2
f 85/5/2 86/5/2 89/5/2
f 89/5/2 86/5/2 90/5/2
f 91/5/2 92/5/2 93/5/2
f 93/5/2 92/5/2 94/5/2
f 95/5/2 96/5/2 97/5/2
f 97/5/2 96/5/2 98/5/2
f 101/5/3 100/5/3 99/5/3
f 102/5/3 100/5/3 101/5/3
f 105/5/3 104/5/3 103/5/3
f 106/5/3 104/5/3 105/5/3
f 109/5/3 108/5/3 107/5/3
f 110/5/3 108/5/3 109/5/3
f 113/5/3 112/5/3 111/5/3
f 114/5/3 112/5/3 113/5/3
f 117/5/3 116/5/3 115/5/3
f 118/5/3 116/5/3 117/5/3
f 121/5/3 120/5/3 119/5/3
f 122/5/3 120/5/3 121/5/3
f 125/5/3 124/5/3 123/5/3
f 126/5/3 124/5/3 125/5/3
f 129/5/3 128/5/3 127/5/3
f 130/5/3 128/5/3 129/5/3
f 133/5/3 132/5/3 131/5/3
f 134/5/3 132/5/3 133/5/3
f 137/5/3 136/5/3 135/5/3
f 138/5/3 136/5/3 137/5/3
f 141/5/3 140/5/3 139/5/3
f 142/5/3 140/5/3 141/5/3
f 145/5/3 144/5/3 143/5/3
f 146/5/3 144/5/3 145/5/3
f 147/5/4 148/5/4 149/5/4
f 149/5/4 148/5/4 150/5/4
f 151/5/4 152/5/4 153/5/4
f 153/5/4 152/5/4 154/5/4
f 155/4/4 156/4/4 157/4/4
f 157/4/4 156/4/4 158/4/4
f 159/5/4 160/5/4 161/5/4
f 161/5/4 160/5/4 162/5/4
f 163/4/4 164/4/4 165/4/4
f 165/4/4 164/4/4 166/4/4
f 167/5/4 168/5/4 169/5/4
f 169/5/4 168/5/4 170/5/4
f 171/4/4 172/4/4 173/4/4
f 173/4/4 172/4/4 174/4/4
f 175/5/4 176/5/4 177/5/4
f 177/5/4 176/5/4 178/5/4
f 179/4/4 180/4/4 181/4/4
f 181/4/4 180/4/4 182/4/4
f 183/5/4 184/5/4 185/5/4
f 185/5/4 184/5/4 186/5/4
f 187/4/4 188/4/4 189/4/4
f 189/4/4 188/4/4 190/4/4
f 189/5/4 190/5/4 191/5/4
f 191/5/4 190/5/4 192/5/4
f 193/5/4 194/5/4 195/5/4
f 195/5/4 194/5/4 196/5/4
f 199/5/5 198/5/5 197/5/5
f 200/5/5 198/5/5 199/5/5
f 201/5/5 199/5/5 197/5/5
f 201/6/5 200/6/5 199/6/5
f 202/5/5 198/5/5 200/5/5
f 202/6/5 200/6/5 201/6/5
f 203/5/5 201/5/5 197/5/5
f 203/5/5 202/5/5 201/5/5
f 204/5/5 198/5/5 202/5/5
f 204/5/5 202/5/5 203/5/5
f 205/5/5 203/5/5 197/5/5
f 205/7/5 204/7/5 203/7/5
f 206/5/5 198/5/5 204/5/5
f 206/7/5 204/7/5 205/7/5
f 207/5/5 205/5/5 197/5/5
f 207/5/5 206/5/5 205/5/5
f 208/5/5 198/5/5 206/5/5
f 208/5/5 206/5/5 207/5/5
f 209/6/6 210/6/6 211/6/6
f 211/6/6 210/6/6 212/6/6
f 213/7/6 214/7/6 215/7/6
f 215/7/6 214/7/6 216/7/6
f 213/7/6 215/7/6 217/7/6
f 217/7/6 215/7/6 218/7/6
f 216/7/6 214/7/6 219/7/6
f 219/7/6 214/7/6 220/7/6
f 213/7/6 217/7/6 221/7/6
f 221/7/6 217/7/6 222/7/6
f 220/7/6 214/7/6 223/7/6
f 223/7/6 214/7/6 224/7/6
f 213/7/6 221/7/6 225/7/6
f 225/7/6 221/7/6 226/7/6
f 224/7/6 214/7/6 227/7/6
f 227/7/6 214/7/6 228/7/6
f 213/7/6 225/7/6 229/7/6
f 229/7/6 225/7/6 230/7/6
f 228/7/6 214/7/6 231/7/6
f 231/7/6 214/7/6 232/7/6
f 213/7/6 229/7/6 233/7/6
f 213/7/6 233/7/6 234/7/6
f 232/7/6 214/7/6 237/7/6
f 234/7/6 235/7/6 238/7/6
f 236/7/6 237/7/6 241/7/6
f 238/7/6 239/7/6 242/7/6
f 240/7/6 241/7/6 245/7/6
f 242/7/6 243/7/6 246/7/6
f 244/7/6 245/7/6 249/7/6
f 246/7/6 247/7/6 250/7/6
f 248/7/6 249/7/6 252/7/6
f 250/7/6 251/7/6 253/7/6
f 251/7/6 252/7/6 253/7/6
f 213/7/6 234/7/6 253/7/6
f 234/7/6 238/7/6 253/7/6
f 246/7/6 250/7/6 253/7/6
f 238/7/6 242/7/6 253/7/6
f 242/7/6 246/7/6 253/7/6
f 252/7/6 249/7/6 254/7/6
f 253/7/6 252/7/6 254/7/6
f 237/7/6 214/7/6 254/7/6
f 245/7/6 241/7/6 254/7/6
f 249/7/6 245/7/6 254/7/6
f 241/7/6 237/7/6 254/7/6
f 255/5/6 256/5/6 257/5/6
f 257/5/6 256/5/6 258/5/6
f 255/5/6 257/5/6 259/5/6
f 258/5/6 256/5/6 260/5/6
f 255/5/6 259/5/6 261/5/6
f 259/5/6 260/5/6 261/5/6
f 260/5/6 256/5/6 262/5/6
f 261/5/6 260/5/6 262/5/6
f 263/5/6 264/5/6 266/5/6
f 266/5/6 264/5/6 267/5/6
f 267/5/6 264/5/6 268/5/6
f 268/5/6 264/5/6 269/5/6
f 265/5/6 266/5/6 272/5/6
f 272/5/6 266/5/6 273/5/6
f 266/1/6 267/1/6 274/1/6
f 273/5/6 266/5/6 274/5/6
f 267/3/6 268/3/6 275/3/6
f 274/1/6 267/1/6 275/1/6
f 268/1/6 269/1/6 276/1/6
f 275/3/6 268/3/6 276/3/6
f 269/5/6 270/5/6 277/5/6
f 276/1/6 269/1/6 277/1/6
f 277/5/6 270/5/6 278/5/6
f 278/5/6 270/5/6 279/5/6
f 271/5/6 272/5/6 282/5/6
f 272/3/6 273/3/6 283/3/6
f 282/5/6 272/5/6 283/5/6
f 273/1/6 274/1/6 284/1/6
f 283/3/6 273/3/6 284/3/6
f 275/2/6 276/2/6 285/2/6
f 284/1/6 274/1/6 285/1/6
f 274/2/6 275/2/6 285/2/6
f 276/2/6 277/2/6 285/2/6
f 277/1/6 278/1/6 286/1/6
f 285/2/6 277/2/6 286/2/6
f 278/3/6 279/3/6 287/3/6
f 286/1/6 278/1/6 287/1/6
f 279/5/6 280/5/6 288/5/6
f 287/3/6 279/3/6 288/3/6
f 288/5/6 280/5/6 289/5/6
f 281/5/6 282/5/6 291/5/6
f 282/3/6 283/3/6 291/3/6
f 283/2/6 284/2/6 292/2/6
f 291/3/6 283/3/6 292/3/6
f 284/2/6 285/2/6 292/2/6
f 292/2/6 285/2/6 293/2/6
f 285/1/6 286/1/6 294/1/6
f 293/2/6 285/2/6 294/2/6
f 286/2/6 287/2/6 295/2/6
f 294/1/6 286/1/6 295/1/6
f 287/2/6 288/2/6 295/2/6
f 295/2/6 288/2/6 296/2/6
f 288/3/6 289/3/6 297/3/6
f 296/2/6 288/2/6 297/2/6
f 289/5/6 290/5/6 298/5/6
f 297/3/6 289/3/6 298/3/6
f 281/5/6 291/5/6 300/5/6
f 291/1/6 292/1/6 301/1/6
f 300/5/6 291/5/6 301/5/6
f 292/2/6 293/2/6 302/2/6
f 301/1/6 292/1/6 302/1/6
f 295/1/6 296/1/6 303/1/6
f 302/2/6 293/2/6 303/2/6
f 293/1/6 294/1/6 303/1/6
f 294/1/6 295/1/6 303/1/6
f 303/1/6 296/1/6 304/1/6
f 304/1/6 296/1/6 305/1/6
f 305/1/6 296/1/6 306/1/6
f 296/2/6 297/2/6 307/2/6
f 306/1/6 296/1/6 307/1/6
f 297/1/6 298/1/6 308/1/6
f 307/2/6 297/2/6 308/2/6
f 298/5/6 290/5/6 309/5/6
f 308/1/6 298/1/6 309/1/6
f 309/5/6 290/5/6 310/5/6
f 299/5/6 300/5/6 312/5/6
f 300/1/6 301/1/6 313/1/6
f 312/5/6 300/5/6 313/5/6
f 301/2/6 302/2/6 314/2/6
f 313/1/6 301/1/6 314/1/6
f 302/1/6 303/1/6 315/1/6
f 303/3/6 304/3/6 315/3/6
f 304/1/6 305/1/6 316/1/6
f 315/3/6 304/3/6 316/3/6
f 316/1/6 305/1/6 317/1/6
f 317/1/6 305/1/6 318/1/6
f 305/3/6 306/3/6 319/3/6
f 318/1/6 305/1/6 319/1/6
f 307/1/6 308/1/6 320/1/6
f 319/3/6 306/3/6 320/3/6
f 306/1/6 307/1/6 320/1/6
f 320/1/6 308/1/6 321/1/6
f 308/2/6 309/2/6 322/2/6
f 309/1/6 310/1/6 322/1/6
f 310/5/6 311/5/6 323/5/6
f 322/1/6 310/1/6 323/1/6
f 302/1/6 315/1/6 324/1/6
f 315/1/6 316/1/6 324/1/6
f 316/3/6 317/3/6 325/3/6
f 324/1/6 316/1/6 325/1/6
f 317/1/6 318/1/6 326/1/6
f 325/3/6 317/3/6 326/3/6
f 318/3/6 319/3/6 327/3/6
f 326/1/6 318/1/6 327/1/6
f 319/1/6 320/1/6 328/1/6
f 327/3/6 319/3/6 328/3/6
f 320/3/6 321/3/6 329/3/6
f 328/1/6 320/1/6 329/1/6
f 321/1/6 308/1/6 330/1/6
f 329/3/6 321/3/6 330/3/6
f 324/3/6 325/3/6 331/3/6
f 302/1/6 324/1/6 331/1/6
f 325/1/6 326/1/6 332/1/6
f 331/3/6 325/3/6 332/3/6
f 327/1/6 328/1/6 332/1/6
f 326/1/6 327/1/6 332/1/6
f 332/1/6 328/1/6 333/1/6
f 333/1/6 328/1/6 334/1/6
f 328/3/6 329/3/6 335/3/6
f 334/1/6 328/1/6 335/1/6
f 329/1/6 330/1/6 336/1/6
f 335/3/6 329/3/6 336/3/6
f 330/1/6 308/1/6 337/1/6
f 336/1/6 330/1/6 337/1/6
f 312/4/6 313/4/6 338/4/6
f 313/3/6 314/3/6 338/3/6
f 314/2/6 302/2/6 339/2/6
f 338/3/6 314/3/6 339/3/6
f 302/1/6 331/1/6 340/1/6
f 331/1/6 332/1/6 340/1/6
f 332/3/6 333/3/6 341/3/6
f 340/1/6 332/1/6 341/1/6
f 333/1/6 334/1/6 342/1/6
f 341/3/6 333/3/6 342/3/6
f 334/3/6 335/3/6 343/3/6
f 342/1/6 334/1/6 343/1/6
f 335/1/6 336/1/6 344/1/6
f 343/3/6 335/3/6 344/3/6
f 336/3/6 337/3/6 345/3/6
f 344/1/6 336/1/6 345/1/6
f 337/1/6 308/1/6 346/1/6
f 345/3/6 337/3/6 346/3/6
f 308/2/6 322/2/6 347/2/6
f 322/3/6 323/3/6 347/3/6
f 323/5/6 311/5/6 348/5/6
f 347/3/6 323/3/6 348/3/6
f 312/4/6 338/4/6 349/4/6
f 338/1/6 339/1/6 350/1/6
f 349/4/6 338/4/6 350/4/6
f 339/2/6 302/2/6 351/2/6
f 350/1/6 339/1/6 351/1/6
f 302/1/6 340/1/6 352/1/6
f 351/2/6 302/2/6 352/2/6
f 340/3/6 341/3/6 353/3/6
f 352/1/6 340/1/6 353/1/6
f 342/1/6 343/1/6 354/1/6
f 353/3/6 341/3/6 354/3/6
f 341/1/6 342/1/6 354/1/6
f 343/1/6 344/1/6 354/1/6
f 344/3/6 345/3/6 355/3/6
f 354/1/6 344/1/6 355/1/6
f 345/1/6 346/1/6 356/1/6
f 355/3/6 345/3/6 356/3/6
f 346/1/6 308/1/6 357/1/6
f 356/1/6 346/1/6 357/1/6
f 308/2/6 347/2/6 358/2/6
f 357/1/6 308/1/6 358/1/6
f 347/1/6 348/1/6 359/1/6
f 358/2/6 347/2/6 359/2/6
f 348/5/6 311/5/6 360/5/6
f 359/1/6 348/1/6 360/1/6
f 360/5/6 311/5/6 361/5/6
f 350/4/6 351/4/6 362/4/6
f 351/1/6 352/1/6 362/1/6
f 352/2/6 353/2/6 363/2/6
f 362/1/6 352/1/6 363/1/6
f 353/1/6 354/1/6 364/1/6
f 363/2/6 353/2/6 364/2/6
f 355/1/6 356/1/6 364/1/6
f 354/1/6 355/1/6 364/1/6
f 356/1/6 357/1/6 364/1/6
f 364/1/6 357/1/6 365/1/6
f 365/1/6 357/1/6 366/1/6
f 357/2/6 358/2/6 367/2/6
f 366/1/6 357/1/6 367/1/6
f 358/1/6 359/1/6 368/1/6
f 367/2/6 358/2/6 368/2/6
f 359/5/6 360/5/6 369/5/6
f 368/1/6 359/1/6 369/1/6
f 350/4/6 362/4/6 370/4/6
f 362/3/6 363/3/6 371/3/6
f 370/4/6 362/4/6 371/4/6
f 363/2/6 364/2/6 372/2/6
f 371/3/6 363/3/6 372/3/6
f 364/2/6 365/2/6 372/2/6
f 372/2/6 365/2/6 373/2/6
f 365/1/6 366/1/6 374/1/6
f 373/2/6 365/2/6 374/2/6
f 366/2/6 367/2/6 375/2/6
f 374/1/6 366/1/6 375/1/6
f 367/2/6 368/2/6 375/2/6
f 375/2/6 368/2/6 376/2/6
f 368/3/6 369/3/6 377/3/6
f 376/2/6 368/2/6 377/2/6
f 369/5/6 360/5/6 378/5/6
f 377/3/6 369/3/6 378/3/6
f 378/5/6 360/5/6 379/5/6
f 371/4/6 372/4/6 380/4/6
f 372/3/6 373/3/6 381/3/6
f 380/4/6 372/4/6 381/4/6
f 373/1/6 374/1/6 382/1/6
f 381/3/6 373/3/6 382/3/6
f 374/2/6 375/2/6 383/2/6
f 382/1/6 374/1/6 383/1/6
f 383/2/6 375/2/6 384/2/6
f 384/2/6 375/2/6 385/2/6
f 375/1/6 376/1/6 386/1/6
f 385/2/6 375/2/6 386/2/6
f 376/3/6 377/3/6 387/3/6
f 386/1/6 376/1/6 387/1/6
f 377/5/6 378/5/6 388/5/6
f 387/3/6 377/3/6 388/3/6
f 388/5/6 378/5/6 389/5/6
f 381/4/6 382/4/6 390/4/6
f 382/4/6 383/4/6 390/4/6
f 383/1/6 384/1/6 391/1/6
f 390/4/6 383/4/6 391/4/6
f 384/3/6 385/3/6 392/3/6
f 391/1/6 384/1/6 392/1/6
f 385/1/6 386/1/6 393/1/6
f 392/3/6 385/3/6 393/3/6
f 386/5/6 387/5/6 394/5/6
f 393/1/6 386/1/6 394/1/6
f 387/5/6 388/5/6 394/5/6
f 394/5/6 388/5/6 395/5/6
f 391/4/6 392/4/6 396/4/6
f 392/4/6 393/4/6 396/4/6
f 393/5/6 394/5/6 397/5/6
f 396/4/6 393/4/6 397/4/6
f 397/5/6 394/5/6 398/5/6
f 255/5/6 261/5/6 399/5/6
f 262/5/6 256/5/6 400/5/6
f 255/5/6 399/5/6 401/5/6
f 399/5/6 400/5/6 401/5/6
f 400/5/6 256/5/6 402/5/6
f 401/5/6 400/5/6 402/5/6
