# MagicaVoxel @ Ephtracy

# group
o 

# material
mtllib tile29.mtl
usemtl palette

# normals
vn -1 0 0
vn 1 0 0
vn 0 0 1
vn 0 0 -1
vn 0 -1 0
vn 0 1 0

# texcoords
vt 0.962891 0.5
vt 0.970703 0.5
vt 0.974609 0.5
vt 0.978516 0.5

# verts
v -2 0 3
v -2 0 -3
v -2 0.2 3
v -2 0.2 -3
v -0.7 0.1 -1.7
v -0.7 0.1 -2.2
v -0.7 0.2 -1.7
v -0.7 0.2 -2.2
v -0.6 0.1 -1.6
v -0.6 0.1 -1.7
v -0.6 0.1 -2.2
v -0.6 0.1 -2.3
v -0.6 0.2 -1.6
v -0.6 0.2 -1.7
v -0.6 0.2 -2.2
v -0.6 0.2 -2.3
v -0.5 0.1 -1.5
v -0.5 0.1 -1.6
v -0.5 0.1 -2.3
v -0.5 0.1 -2.4
v -0.5 0.2 -1.5
v -0.5 0.2 -1.6
v -0.5 0.2 -2.3
v -0.5 0.2 -2.4
v -0.4 0.1 -1.4
v -0.4 0.1 -1.5
v -0.4 0.1 -2.4
v -0.4 0.1 -2.5
v -0.4 0.2 -1.4
v -0.4 0.2 -1.5
v -0.4 0.2 -2.4
v -0.4 0.2 -2.5
v -0.3 0.1 -1.3
v -0.3 0.1 -1.4
v -0.3 0.1 -2.5
v -0.3 0.1 -2.6
v -0.3 0.2 -1.3
v -0.3 0.2 -1.4
v -0.3 0.2 -2.5
v -0.3 0.2 -2.6
v -0.2 0.1 -1.2
v -0.2 0.1 -1.3
v -0.2 0.2 -1.2
v -0.2 0.2 -1.3
v 1.8 0.1 2.8
v 1.8 0.1 -0.8
v 1.8 0.1 -1
v 1.8 0.1 -2.8
v 1.8 0.2 2.8
v 1.8 0.2 -0.8
v 1.8 0.2 -1
v 1.8 0.2 -2.8
v -1.8 0.1 2.8
v -1.8 0.1 -0.8
v -1.8 0.1 -1
v -1.8 0.1 -2.8
v -1.8 0.2 2.8
v -1.8 0.2 -0.8
v -1.8 0.2 -1
v -1.8 0.2 -2.8
v 0.2 0.1 -1.2
v 0.2 0.1 -1.3
v 0.2 0.2 -1.2
v 0.2 0.2 -1.3
v 0.3 0.1 -1.3
v 0.3 0.1 -1.4
v 0.3 0.1 -2.5
v 0.3 0.1 -2.6
v 0.3 0.2 -1.3
v 0.3 0.2 -1.4
v 0.3 0.2 -2.5
v 0.3 0.2 -2.6
v 0.4 0.1 -1.4
v 0.4 0.1 -1.5
v 0.4 0.1 -2.4
v 0.4 0.1 -2.5
v 0.4 0.2 -1.4
v 0.4 0.2 -1.5
v 0.4 0.2 -2.4
v 0.4 0.2 -2.5
v 0.5 0.1 -1.5
v 0.5 0.1 -1.6
v 0.5 0.1 -2.3
v 0.5 0.1 -2.4
v 0.5 0.2 -1.5
v 0.5 0.2 -1.6
v 0.5 0.2 -2.3
v 0.5 0.2 -2.4
v 0.6 0.1 -1.6
v 0.6 0.1 -1.7
v 0.6 0.1 -2.2
v 0.6 0.1 -2.3
v 0.6 0.2 -1.6
v 0.6 0.2 -1.7
v 0.6 0.2 -2.2
v 0.6 0.2 -2.3
v 0.7 0.1 -1.7
v 0.7 0.1 -2.2
v 0.7 0.2 -1.7
v 0.7 0.2 -2.2
v 2 0 3
v 2 0 -3
v 2 0.2 3
v 2 0.2 -3
v -2 0 3
v -2 0.2 3
v 2 0 3
v 2 0.2 3
v -1.8 0.1 -0.8
v -1.8 0.2 -0.8
v 1.8 0.1 -0.8
v 1.8 0.2 -0.8
v -0.2 0.1 -1.2
v -0.2 0.2 -1.2
v 0.2 0.1 -1.2
v 0.2 0.2 -1.2
v -0.3 0.1 -1.3
v -0.3 0.2 -1.3
v -0.2 0.1 -1.3
v -0.2 0.2 -1.3
v 0.2 0.1 -1.3
v 0.2 0.2 -1.3
v 0.3 0.1 -1.3
v 0.3 0.2 -1.3
v -0.4 0.1 -1.4
v -0.4 0.2 -1.4
v -0.3 0.1 -1.4
v -0.3 0.2 -1.4
v 0.3 0.1 -1.4
v 0.3 0.2 -1.4
v 0.4 0.1 -1.4
v 0.4 0.2 -1.4
v -0.5 0.1 -1.5
v -0.5 0.2 -1.5
v -0.4 0.1 -1.5
v -0.4 0.2 -1.5
v 0.4 0.1 -1.5
v 0.4 0.2 -1.5
v 0.5 0.1 -1.5
v 0.5 0.2 -1.5
v -0.6 0.1 -1.6
v -0.6 0.2 -1.6
v -0.5 0.1 -1.6
v -0.5 0.2 -1.6
v 0.5 0.1 -1.6
v 0.5 0.2 -1.6
v 0.6 0.1 -1.6
v 0.6 0.2 -1.6
v -0.7 0.1 -1.7
v -0.7 0.2 -1.7
v -0.6 0.1 -1.7
v -0.6 0.2 -1.7
v 0.6 0.1 -1.7
v 0.6 0.2 -1.7
v 0.7 0.1 -1.7
v 0.7 0.2 -1.7
v -1.8 0.1 -2.8
v -1.8 0.2 -2.8
v 1.8 0.1 -2.8
v 1.8 0.2 -2.8
v -1.8 0.1 2.8
v -1.8 0.2 2.8
v 1.8 0.1 2.8
v 1.8 0.2 2.8
v -1.8 0.1 -1
v -1.8 0.2 -1
v 1.8 0.1 -1
v 1.8 0.2 -1
v -0.7 0.1 -2.2
v -0.7 0.2 -2.2
v -0.6 0.1 -2.2
v -0.6 0.2 -2.2
v 0.6 0.1 -2.2
v 0.6 0.2 -2.2
v 0.7 0.1 -2.2
v 0.7 0.2 -2.2
v -0.6 0.1 -2.3
v -0.6 0.2 -2.3
v -0.5 0.1 -2.3
v -0.5 0.2 -2.3
v 0.5 0.1 -2.3
v 0.5 0.2 -2.3
v 0.6 0.1 -2.3
v 0.6 0.2 -2.3
v -0.5 0.1 -2.4
v -0.5 0.2 -2.4
v -0.4 0.1 -2.4
v -0.4 0.2 -2.4
v 0.4 0.1 -2.4
v 0.4 0.2 -2.4
v 0.5 0.1 -2.4
v 0.5 0.2 -2.4
v -0.4 0.1 -2.5
v -0.4 0.2 -2.5
v -0.3 0.1 -2.5
v -0.3 0.2 -2.5
v 0.3 0.1 -2.5
v 0.3 0.2 -2.5
v 0.4 0.1 -2.5
v 0.4 0.2 -2.5
v -0.3 0.1 -2.6
v -0.3 0.2 -2.6
v 0.3 0.1 -2.6
v 0.3 0.2 -2.6
v -2 0 -3
v -2 0.2 -3
v 2 0 -3
v 2 0.2 -3
v -2 0 3
v 2 0 3
v -1.8 0 2.8
v 1.8 0 2.8
v -1.8 0 -0.8
v 1.8 0 -0.8
v -1.8 0 -1
v 1.8 0 -1
v -1.8 0 -2.8
v 1.8 0 -2.8
v -2 0 -3
v 2 0 -3
v -1.8 0.1 2.8
v 1.8 0.1 2.8
v -1.8 0.1 -0.8
v 1.8 0.1 -0.8
v -1.8 0.1 -1
v 1.8 0.1 -1
v -0.2 0.1 -1.2
v 0.2 0.1 -1.2
v -0.3 0.1 -1.3
v -0.2 0.1 -1.3
v 0.2 0.1 -1.3
v 0.3 0.1 -1.3
v -0.4 0.1 -1.4
v -0.3 0.1 -1.4
v 0.3 0.1 -1.4
v 0.4 0.1 -1.4
v -0.5 0.1 -1.5
v -0.4 0.1 -1.5
v 0.4 0.1 -1.5
v 0.5 0.1 -1.5
v -0.6 0.1 -1.6
v -0.5 0.1 -1.6
v 0.5 0.1 -1.6
v 0.6 0.1 -1.6
v -0.7 0.1 -1.7
v -0.6 0.1 -1.7
v 0.6 0.1 -1.7
v 0.7 0.1 -1.7
v -0.7 0.1 -2.2
v -0.6 0.1 -2.2
v 0.6 0.1 -2.2
v 0.7 0.1 -2.2
v -0.6 0.1 -2.3
v -0.5 0.1 -2.3
v 0.5 0.1 -2.3
v 0.6 0.1 -2.3
v -0.5 0.1 -2.4
v -0.4 0.1 -2.4
v 0.4 0.1 -2.4
v 0.5 0.1 -2.4
v -0.4 0.1 -2.5
v -0.3 0.1 -2.5
v 0.3 0.1 -2.5
v 0.4 0.1 -2.5
v -0.3 0.1 -2.6
v 0.3 0.1 -2.6
v -1.8 0.1 -2.8
v 1.8 0.1 -2.8
v -2 0.2 3
v 2 0.2 3
v -1.8 0.2 2.8
v 1.8 0.2 2.8
v -1.8 0.2 -0.8
v 1.8 0.2 -0.8
v -1.8 0.2 -1
v 1.8 0.2 -1
v -0.2 0.2 -1.2
v 0.2 0.2 -1.2
v -0.3 0.2 -1.3
v -0.2 0.2 -1.3
v -0.0999999 0.2 -1.3
v 0.1 0.2 -1.3
v 0.2 0.2 -1.3
v 0.3 0.2 -1.3
v -0.4 0.2 -1.4
v -0.3 0.2 -1.4
v -0.2 0.2 -1.4
v -0.0999999 0.2 -1.4
v 0.1 0.2 -1.4
v 0.2 0.2 -1.4
v 0.3 0.2 -1.4
v 0.4 0.2 -1.4
v -0.5 0.2 -1.5
v -0.4 0.2 -1.5
v -0.3 0.2 -1.5
v -0.0999999 0.2 -1.5
v 0.1 0.2 -1.5
v 0.3 0.2 -1.5
v 0.4 0.2 -1.5
v 0.5 0.2 -1.5
v -0.6 0.2 -1.6
v -0.5 0.2 -1.6
v -0.4 0.2 -1.6
v -0.3 0.2 -1.6
v -0.2 0.2 -1.6
v 0.2 0.2 -1.6
v 0.3 0.2 -1.6
v 0.4 0.2 -1.6
v 0.5 0.2 -1.6
v 0.6 0.2 -1.6
v -0.7 0.2 -1.7
v -0.6 0.2 -1.7
v -0.5 0.2 -1.7
v -0.4 0.2 -1.7
v -0.2 0.2 -1.7
v 0.2 0.2 -1.7
v 0.4 0.2 -1.7
v 0.5 0.2 -1.7
v 0.6 0.2 -1.7
v 0.7 0.2 -1.7
v -0.6 0.2 -1.8
v -0.5 0.2 -1.8
v -0.4 0.2 -1.8
v -0.3 0.2 -1.8
v -0.0999999 0.2 -1.8
v 2.38419e-07 0.2 -1.8
v 0.3 0.2 -1.8
v 0.4 0.2 -1.8
v 0.5 0.2 -1.8
v 0.6 0.2 -1.8
v -0.6 0.2 -1.9
v -0.5 0.2 -1.9
v -0.4 0.2 -1.9
v -0.3 0.2 -1.9
v -0.2 0.2 -1.9
v -0.0999999 0.2 -1.9
v 2.38419e-07 0.2 -1.9
v 0.1 0.2 -1.9
v 0.2 0.2 -1.9
v 0.3 0.2 -1.9
v 0.4 0.2 -1.9
v 0.5 0.2 -1.9
v 0.6 0.2 -1.9
v -0.6 0.2 -2
v -0.5 0.2 -2
v -0.4 0.2 -2
v -0.3 0.2 -2
v 2.38419e-07 0.2 -2
v 0.1 0.2 -2
v 0.3 0.2 -2
v 0.4 0.2 -2
v 0.5 0.2 -2
v 0.6 0.2 -2
v -0.6 0.2 -2.1
v -0.4 0.2 -2.1
v -0.3 0.2 -2.1
v -0.2 0.2 -2.1
v -0.0999999 0.2 -2.1
v 0.1 0.2 -2.1
v 0.2 0.2 -2.1
v 0.3 0.2 -2.1
v 0.6 0.2 -2.1
v -0.7 0.2 -2.2
v -0.6 0.2 -2.2
v -0.5 0.2 -2.2
v -0.3 0.2 -2.2
v -0.0999999 0.2 -2.2
v 0.1 0.2 -2.2
v 0.3 0.2 -2.2
v 0.4 0.2 -2.2
v 0.5 0.2 -2.2
v 0.6 0.2 -2.2
v 0.7 0.2 -2.2
v -0.6 0.2 -2.3
v -0.5 0.2 -2.3
v -0.4 0.2 -2.3
v -0.3 0.2 -2.3
v -0.2 0.2 -2.3
v -0.0999999 0.2 -2.3
v 0.1 0.2 -2.3
v 0.2 0.2 -2.3
v 0.3 0.2 -2.3
v 0.4 0.2 -2.3
v 0.5 0.2 -2.3
v 0.6 0.2 -2.3
v -0.5 0.2 -2.4
v -0.4 0.2 -2.4
v -0.2 0.2 -2.4
v -0.0999999 0.2 -2.4
v 0.1 0.2 -2.4
v 0.2 0.2 -2.4
v 0.4 0.2 -2.4
v 0.5 0.2 -2.4
v -0.4 0.2 -2.5
v -0.3 0.2 -2.5
v -0.2 0.2 -2.5
v 0.2 0.2 -2.5
v 0.3 0.2 -2.5
v 0.4 0.2 -2.5
v -0.3 0.2 -2.6
v 0.3 0.2 -2.6
v -1.8 0.2 -2.8
v 1.8 0.2 -2.8
v -2 0.2 -3
v 2 0.2 -3

# faces
f 3/2/1 2/2/1 1/2/1
f 4/2/1 2/2/1 3/2/1
f 7/2/1 6/2/1 5/2/1
f 8/2/1 6/2/1 7/2/1
f 13/2/1 10/2/1 9/2/1
f 14/2/1 10/2/1 13/2/1
f 15/2/1 12/2/1 11/2/1
f 16/2/1 12/2/1 15/2/1
f 21/2/1 18/2/1 17/2/1
f 22/2/1 18/2/1 21/2/1
f 23/2/1 20/2/1 19/2/1
f 24/2/1 20/2/1 23/2/1
f 29/2/1 26/2/1 25/2/1
f 30/2/1 26/2/1 29/2/1
f 31/2/1 28/2/1 27/2/1
f 32/2/1 28/2/1 31/2/1
f 37/2/1 34/2/1 33/2/1
f 38/2/1 34/2/1 37/2/1
f 39/2/1 36/2/1 35/2/1
f 40/2/1 36/2/1 39/2/1
f 43/2/1 42/2/1 41/2/1
f 44/2/1 42/2/1 43/2/1
f 49/2/1 46/2/1 45/2/1
f 50/2/1 46/2/1 49/2/1
f 51/2/1 48/2/1 47/2/1
f 52/2/1 48/2/1 51/2/1
f 53/2/2 54/2/2 57/2/2
f 57/2/2 54/2/2 58/2/2
f 55/2/2 56/2/2 59/2/2
f 59/2/2 56/2/2 60/2/2
f 61/2/2 62/2/2 63/2/2
f 63/2/2 62/2/2 64/2/2
f 65/2/2 66/2/2 69/2/2
f 69/2/2 66/2/2 70/2/2
f 67/2/2 68/2/2 71/2/2
f 71/2/2 68/2/2 72/2/2
f 73/2/2 74/2/2 77/2/2
f 77/2/2 74/2/2 78/2/2
f 75/2/2 76/2/2 79/2/2
f 79/2/2 76/2/2 80/2/2
f 81/2/2 82/2/2 85/2/2
f 85/2/2 82/2/2 86/2/2
f 83/2/2 84/2/2 87/2/2
f 87/2/2 84/2/2 88/2/2
f 89/2/2 90/2/2 93/2/2
f 93/2/2 90/2/2 94/2/2
f 91/2/2 92/2/2 95/2/2
f 95/2/2 92/2/2 96/2/2
f 97/2/2 98/2/2 99/2/2
f 99/2/2 98/2/2 100/2/2
f 101/2/2 102/2/2 103/2/2
f 103/2/2 102/2/2 104/2/2
f 107/2/3 106/2/3 105/2/3
f 108/2/3 106/2/3 107/2/3
f 111/2/3 110/2/3 109/2/3
f 112/2/3 110/2/3 111/2/3
f 115/2/3 114/2/3 113/2/3
f 116/2/3 114/2/3 115/2/3
f 119/2/3 118/2/3 117/2/3
f 120/2/3 118/2/3 119/2/3
f 123/2/3 122/2/3 121/2/3
f 124/2/3 122/2/3 123/2/3
f 127/2/3 126/2/3 125/2/3
f 128/2/3 126/2/3 127/2/3
f 131/2/3 130/2/3 129/2/3
f 132/2/3 130/2/3 131/2/3
f 135/2/3 134/2/3 133/2/3
f 136/2/3 134/2/3 135/2/3
f 139/2/3 138/2/3 137/2/3
f 140/2/3 138/2/3 139/2/3
f 143/2/3 142/2/3 141/2/3
f 144/2/3 142/2/3 143/2/3
f 147/2/3 146/2/3 145/2/3
f 148/2/3 146/2/3 147/2/3
f 151/2/3 150/2/3 149/2/3
f 152/2/3 150/2/3 151/2/3
f 155/2/3 154/2/3 153/2/3
f 156/2/3 154/2/3 155/2/3
f 159/2/3 158/2/3 157/2/3
f 160/2/3 158/2/3 159/2/3
f 161/2/4 162/2/4 163/2/4
f 163/2/4 162/2/4 164/2/4
f 165/2/4 166/2/4 167/2/4
f 167/2/4 166/2/4 168/2/4
f 169/2/4 170/2/4 171/2/4
f 171/2/4 170/2/4 172/2/4
f 173/2/4 174/2/4 175/2/4
f 175/2/4 174/2/4 176/2/4
f 177/2/4 178/2/4 179/2/4
f 179/2/4 178/2/4 180/2/4
f 181/2/4 182/2/4 183/2/4
f 183/2/4 182/2/4 184/2/4
f 185/2/4 186/2/4 187/2/4
f 187/2/4 186/2/4 188/2/4
f 189/2/4 190/2/4 191/2/4
f 191/2/4 190/2/4 192/2/4
f 193/2/4 194/2/4 195/2/4
f 195/2/4 194/2/4 196/2/4
f 197/2/4 198/2/4 199/2/4
f 199/2/4 198/2/4 200/2/4
f 201/2/4 202/2/4 203/2/4
f 203/2/4 202/2/4 204/2/4
f 205/2/4 206/2/4 207/2/4
f 207/2/4 206/2/4 208/2/4
f 211/2/5 210/2/5 209/2/5
f 212/2/5 210/2/5 211/2/5
f 213/2/5 211/2/5 209/2/5
f 213/3/5 212/3/5 211/3/5
f 214/2/5 210/2/5 212/2/5
f 214/3/5 212/3/5 213/3/5
f 215/2/5 213/2/5 209/2/5
f 215/2/5 214/2/5 213/2/5
f 216/2/5 210/2/5 214/2/5
f 216/2/5 214/2/5 215/2/5
f 217/2/5 215/2/5 209/2/5
f 217/4/5 216/4/5 215/4/5
f 218/2/5 210/2/5 216/2/5
f 218/4/5 216/4/5 217/4/5
f 219/2/5 217/2/5 209/2/5
f 219/2/5 218/2/5 217/2/5
f 220/2/5 210/2/5 218/2/5
f 220/2/5 218/2/5 219/2/5
f 221/3/6 222/3/6 223/3/6
f 223/3/6 222/3/6 224/3/6
f 225/4/6 226/4/6 227/4/6
f 227/4/6 226/4/6 228/4/6
f 225/4/6 227/4/6 229/4/6
f 229/4/6 227/4/6 230/4/6
f 228/4/6 226/4/6 231/4/6
f 231/4/6 226/4/6 232/4/6
f 225/4/6 229/4/6 233/4/6
f 233/4/6 229/4/6 234/4/6
f 232/4/6 226/4/6 235/4/6
f 235/4/6 226/4/6 236/4/6
f 225/4/6 233/4/6 237/4/6
f 237/4/6 233/4/6 238/4/6
f 236/4/6 226/4/6 239/4/6
f 239/4/6 226/4/6 240/4/6
f 225/4/6 237/4/6 241/4/6
f 241/4/6 237/4/6 242/4/6
f 240/4/6 226/4/6 243/4/6
f 243/4/6 226/4/6 244/4/6
f 225/4/6 241/4/6 245/4/6
f 245/4/6 241/4/6 246/4/6
f 244/4/6 226/4/6 247/4/6
f 247/4/6 226/4/6 248/4/6
f 225/4/6 245/4/6 249/4/6
f 248/4/6 226/4/6 252/4/6
f 249/4/6 250/4/6 253/4/6
f 251/4/6 252/4/6 256/4/6
f 253/4/6 254/4/6 257/4/6
f 255/4/6 256/4/6 260/4/6
f 257/4/6 258/4/6 261/4/6
f 259/4/6 260/4/6 264/4/6
f 261/4/6 262/4/6 265/4/6
f 263/4/6 264/4/6 266/4/6
f 261/4/6 265/4/6 267/4/6
f 265/4/6 266/4/6 267/4/6
f 225/4/6 249/4/6 267/4/6
f 249/4/6 253/4/6 267/4/6
f 253/4/6 257/4/6 267/4/6
f 257/4/6 261/4/6 267/4/6
f 266/4/6 264/4/6 268/4/6
f 267/4/6 266/4/6 268/4/6
f 252/4/6 226/4/6 268/4/6
f 260/4/6 256/4/6 268/4/6
f 264/4/6 260/4/6 268/4/6
f 256/4/6 252/4/6 268/4/6
f 269/2/6 270/2/6 271/2/6
f 271/2/6 270/2/6 272/2/6
f 269/2/6 271/2/6 273/2/6
f 272/2/6 270/2/6 274/2/6
f 269/2/6 273/2/6 275/2/6
f 273/2/6 274/2/6 275/2/6
f 274/2/6 270/2/6 276/2/6
f 275/2/6 274/2/6 276/2/6
f 277/2/6 278/2/6 280/2/6
f 280/2/6 278/2/6 281/2/6
f 281/2/6 278/2/6 282/2/6
f 282/2/6 278/2/6 283/2/6
f 279/2/6 280/2/6 286/2/6
f 280/2/6 281/2/6 286/2/6
f 286/2/6 281/2/6 287/2/6
f 281/1/6 282/1/6 288/1/6
f 287/2/6 281/2/6 288/2/6
f 283/2/6 284/2/6 289/2/6
f 288/1/6 282/1/6 289/1/6
f 282/2/6 283/2/6 289/2/6
f 289/2/6 284/2/6 290/2/6
f 290/2/6 284/2/6 291/2/6
f 285/2/6 286/2/6 294/2/6
f 286/2/6 287/2/6 294/2/6
f 294/2/6 287/2/6 295/2/6
f 287/1/6 288/1/6 296/1/6
f 288/3/6 289/3/6 296/3/6
f 289/1/6 290/1/6 297/1/6
f 296/3/6 289/3/6 297/3/6
f 291/2/6 292/2/6 298/2/6
f 290/2/6 291/2/6 298/2/6
f 298/2/6 292/2/6 299/2/6
f 293/2/6 294/2/6 302/2/6
f 294/3/6 295/3/6 303/3/6
f 302/2/6 294/2/6 303/2/6
f 295/2/6 287/2/6 304/2/6
f 303/3/6 295/3/6 304/3/6
f 296/1/6 297/1/6 305/1/6
f 304/2/6 287/2/6 305/2/6
f 287/1/6 296/1/6 305/1/6
f 297/1/6 290/1/6 306/1/6
f 305/1/6 297/1/6 306/1/6
f 290/2/6 298/2/6 306/2/6
f 298/3/6 299/3/6 307/3/6
f 306/2/6 298/2/6 307/2/6
f 299/2/6 300/2/6 308/2/6
f 307/3/6 299/3/6 308/3/6
f 308/2/6 300/2/6 309/2/6
f 302/2/6 303/2/6 312/2/6
f 301/2/6 302/2/6 312/2/6
f 312/2/6 303/2/6 313/2/6
f 304/1/6 305/1/6 314/1/6
f 313/2/6 303/2/6 314/2/6
f 303/1/6 304/1/6 314/1/6
f 305/2/6 306/2/6 315/2/6
f 314/1/6 305/1/6 315/1/6
f 306/1/6 307/1/6 316/1/6
f 315/2/6 306/2/6 316/2/6
f 307/1/6 308/1/6 316/1/6
f 309/2/6 310/2/6 317/2/6
f 316/1/6 308/1/6 317/1/6
f 308/2/6 309/2/6 317/2/6
f 317/2/6 310/2/6 318/2/6
f 318/2/6 310/2/6 319/2/6
f 312/3/6 313/3/6 321/3/6
f 311/2/6 312/2/6 321/2/6
f 313/1/6 314/1/6 322/1/6
f 321/3/6 313/3/6 322/3/6
f 314/2/6 315/2/6 323/2/6
f 322/1/6 314/1/6 323/1/6
f 323/2/6 315/2/6 324/2/6
f 315/1/6 316/1/6 325/1/6
f 325/1/6 316/1/6 326/1/6
f 316/2/6 317/2/6 327/2/6
f 317/1/6 318/1/6 328/1/6
f 327/2/6 317/2/6 328/2/6
f 318/3/6 319/3/6 329/3/6
f 328/1/6 318/1/6 329/1/6
f 319/2/6 320/2/6 330/2/6
f 329/3/6 319/3/6 330/3/6
f 321/1/6 322/1/6 331/1/6
f 311/2/6 321/2/6 331/2/6
f 322/2/6 323/2/6 332/2/6
f 331/1/6 322/1/6 332/1/6
f 323/1/6 324/1/6 333/1/6
f 332/2/6 323/2/6 333/2/6
f 324/2/6 315/2/6 334/2/6
f 333/1/6 324/1/6 334/1/6
f 315/1/6 325/1/6 335/1/6
f 334/2/6 315/2/6 335/2/6
f 325/3/6 326/3/6 336/3/6
f 335/1/6 325/1/6 336/1/6
f 326/1/6 316/1/6 337/1/6
f 336/3/6 326/3/6 337/3/6
f 337/1/6 316/1/6 338/1/6
f 316/2/6 327/2/6 339/2/6
f 338/1/6 316/1/6 339/1/6
f 327/1/6 328/1/6 340/1/6
f 339/2/6 327/2/6 340/2/6
f 328/2/6 329/2/6 341/2/6
f 340/1/6 328/1/6 341/1/6
f 329/1/6 330/1/6 342/1/6
f 341/2/6 329/2/6 342/2/6
f 330/2/6 320/2/6 343/2/6
f 342/1/6 330/1/6 343/1/6
f 311/2/6 331/2/6 344/2/6
f 331/2/6 332/2/6 344/2/6
f 332/1/6 333/1/6 345/1/6
f 344/2/6 332/2/6 345/2/6
f 333/1/6 334/1/6 345/1/6
f 334/1/6 335/1/6 345/1/6
f 345/1/6 335/1/6 346/1/6
f 346/1/6 335/1/6 347/1/6
f 337/3/6 338/3/6 348/3/6
f 336/1/6 337/1/6 348/1/6
f 338/2/6 339/2/6 349/2/6
f 348/3/6 338/3/6 349/3/6
f 339/1/6 340/1/6 350/1/6
f 340/3/6 341/3/6 350/3/6
f 341/1/6 342/1/6 351/1/6
f 350/3/6 341/3/6 351/3/6
f 342/2/6 343/2/6 352/2/6
f 351/1/6 342/1/6 352/1/6
f 343/2/6 320/2/6 353/2/6
f 352/2/6 343/2/6 353/2/6
f 311/2/6 344/2/6 354/2/6
f 344/1/6 345/1/6 354/1/6
f 345/1/6 346/1/6 354/1/6
f 346/3/6 347/3/6 355/3/6
f 354/1/6 346/1/6 355/1/6
f 347/1/6 335/1/6 356/1/6
f 355/3/6 347/3/6 356/3/6
f 335/2/6 336/2/6 357/2/6
f 356/1/6 335/1/6 357/1/6
f 336/1/6 348/1/6 358/1/6
f 357/2/6 336/2/6 358/2/6
f 348/1/6 349/1/6 358/1/6
f 349/2/6 339/2/6 359/2/6
f 358/1/6 349/1/6 359/1/6
f 339/1/6 350/1/6 360/1/6
f 359/2/6 339/2/6 360/2/6
f 352/1/6 353/1/6 360/1/6
f 351/1/6 352/1/6 360/1/6
f 350/1/6 351/1/6 360/1/6
f 360/1/6 353/1/6 361/1/6
f 353/2/6 320/2/6 362/2/6
f 361/1/6 353/1/6 362/1/6
f 311/2/6 354/2/6 363/2/6
f 355/2/6 356/2/6 363/2/6
f 354/2/6 355/2/6 363/2/6
f 363/2/6 356/2/6 364/2/6
f 364/2/6 356/2/6 365/2/6
f 357/1/6 358/1/6 366/1/6
f 365/2/6 356/2/6 366/2/6
f 356/1/6 357/1/6 366/1/6
f 358/2/6 359/2/6 367/2/6
f 366/1/6 358/1/6 367/1/6
f 360/1/6 361/1/6 368/1/6
f 367/2/6 359/2/6 368/2/6
f 359/1/6 360/1/6 368/1/6
f 361/2/6 362/2/6 369/2/6
f 368/1/6 361/1/6 369/1/6
f 369/2/6 362/2/6 370/2/6
f 370/2/6 362/2/6 371/2/6
f 362/2/6 320/2/6 372/2/6
f 371/2/6 362/2/6 372/2/6
f 372/2/6 320/2/6 373/2/6
f 364/2/6 365/2/6 374/2/6
f 365/1/6 366/1/6 375/1/6
f 374/2/6 365/2/6 375/2/6
f 375/1/6 366/1/6 376/1/6
f 366/2/6 367/2/6 377/2/6
f 376/1/6 366/1/6 377/1/6
f 377/2/6 367/2/6 378/2/6
f 367/1/6 368/1/6 379/1/6
f 378/2/6 367/2/6 379/2/6
f 368/2/6 369/2/6 380/2/6
f 379/1/6 368/1/6 380/1/6
f 380/2/6 369/2/6 381/2/6
f 369/3/6 370/3/6 382/3/6
f 381/2/6 369/2/6 382/2/6
f 370/1/6 371/1/6 383/1/6
f 382/3/6 370/3/6 383/3/6
f 371/2/6 372/2/6 384/2/6
f 383/1/6 371/1/6 384/1/6
f 384/2/6 372/2/6 385/2/6
f 375/2/6 376/2/6 386/2/6
f 377/1/6 378/1/6 387/1/6
f 386/2/6 376/2/6 387/2/6
f 376/1/6 377/1/6 387/1/6
f 378/2/6 379/2/6 388/2/6
f 387/1/6 378/1/6 388/1/6
f 379/3/6 380/3/6 389/3/6
f 388/2/6 379/2/6 389/2/6
f 380/2/6 381/2/6 390/2/6
f 389/3/6 380/3/6 390/3/6
f 382/1/6 383/1/6 391/1/6
f 390/2/6 381/2/6 391/2/6
f 381/1/6 382/1/6 391/1/6
f 383/2/6 384/2/6 392/2/6
f 391/1/6 383/1/6 392/1/6
f 392/2/6 384/2/6 393/2/6
f 387/2/6 388/2/6 394/2/6
f 394/2/6 388/2/6 395/2/6
f 389/1/6 390/1/6 396/1/6
f 395/2/6 388/2/6 396/2/6
f 388/1/6 389/1/6 396/1/6
f 390/1/6 391/1/6 396/1/6
f 391/2/6 392/2/6 397/2/6
f 396/1/6 391/1/6 397/1/6
f 397/2/6 392/2/6 398/2/6
f 398/2/6 392/2/6 399/2/6
f 395/2/6 396/2/6 400/2/6
f 397/2/6 398/2/6 400/2/6
f 396/2/6 397/2/6 400/2/6
f 400/2/6 398/2/6 401/2/6
f 269/2/6 275/2/6 402/2/6
f 276/2/6 270/2/6 403/2/6
f 269/2/6 402/2/6 404/2/6
f 402/2/6 403/2/6 404/2/6
f 403/2/6 270/2/6 405/2/6
f 404/2/6 403/2/6 405/2/6
