# MagicaVoxel @ Ephtracy

# group
o 

# material
mtllib tile4.mtl
usemtl palette

# normals
vn -1 0 0
vn 1 0 0
vn 0 0 1
vn 0 0 -1
vn 0 -1 0
vn 0 1 0

# texcoords
vt 0.908203 0.5
vt 0.912109 0.5
vt 0.970703 0.5
vt 0.974609 0.5
vt 0.978516 0.5
vt 0.982422 0.5
vt 0.990234 0.5

# verts
v -2 0 3
v -2 0 -3
v -2 0.2 3
v -2 0.2 -3
v -1.5 0.1 -1.6
v -1.5 0.1 -1.8
v -1.5 0.1 -2
v -1.5 0.1 -2.2
v -1.5 0.2 -1.6
v -1.5 0.2 -1.8
v -1.5 0.2 -2
v -1.5 0.2 -2.2
v -1.4 0.1 -1.5
v -1.4 0.1 -1.6
v -1.4 0.1 -2.2
v -1.4 0.1 -2.3
v -1.4 0.2 -1.5
v -1.4 0.2 -1.6
v -1.4 0.2 -2.2
v -1.4 0.2 -2.3
v -1.1 0.1 -1.7
v -1.1 0.1 -1.8
v -1.1 0.1 -2
v -1.1 0.1 -2.1
v -1.1 0.2 -1.7
v -1.1 0.2 -1.8
v -1.1 0.2 -2
v -1.1 0.2 -2.1
v -1 0.1 -1.8
v -1 0.1 -2
v -1 0.2 -1.8
v -1 0.2 -2
v -0.7 0.1 -1.8
v -0.7 0.1 -2
v -0.7 0.2 -1.8
v -0.7 0.2 -2
v -0.3 0.1 -1.5
v -0.3 0.1 -1.6
v -0.3 0.1 -2.2
v -0.3 0.1 -2.3
v -0.3 0.2 -1.5
v -0.3 0.2 -1.6
v -0.3 0.2 -2.2
v -0.3 0.2 -2.3
v 0.2 0.1 -1.4
v 0.2 0.1 -1.5
v 0.2 0.1 -2.3
v 0.2 0.1 -2.4
v 0.2 0.2 -1.4
v 0.2 0.2 -1.5
v 0.2 0.2 -2.3
v 0.2 0.2 -2.4
v 0.8 0.1 -1.3
v 0.8 0.1 -1.4
v 0.8 0.1 -2.4
v 0.8 0.1 -2.5
v 0.8 0.2 -1.3
v 0.8 0.2 -1.4
v 0.8 0.2 -2.4
v 0.8 0.2 -2.5
v 1.8 0.1 2.8
v 1.8 0.1 -0.8
v 1.8 0.1 -1
v 1.8 0.1 -2.8
v 1.8 0.2 2.8
v 1.8 0.2 -0.8
v 1.8 0.2 -1
v 1.8 0.2 -2.8
v -1.8 0.1 2.8
v -1.8 0.1 -0.8
v -1.8 0.1 -1
v -1.8 0.1 -2.8
v -1.8 0.2 2.8
v -1.8 0.2 -0.8
v -1.8 0.2 -1
v -1.8 0.2 -2.8
v -1.2 0.1 -1.7
v -1.2 0.1 -1.8
v -1.2 0.1 -2
v -1.2 0.1 -2.1
v -1.2 0.2 -1.7
v -1.2 0.2 -1.8
v -1.2 0.2 -2
v -1.2 0.2 -2.1
v -0.9 0.1 -1.5
v -0.9 0.1 -1.6
v -0.9 0.1 -2.2
v -0.9 0.1 -2.3
v -0.9 0.2 -1.5
v -0.9 0.2 -1.6
v -0.9 0.2 -2.2
v -0.9 0.2 -2.3
v -0.8 0.1 -1.8
v -0.8 0.1 -2
v -0.8 0.2 -1.8
v -0.8 0.2 -2
v -0.6 0.1 -1.8
v -0.6 0.1 -2
v -0.6 0.2 -1.8
v -0.6 0.2 -2
v -0.2 0.1 -1.7
v -0.2 0.1 -1.8
v -0.2 0.1 -2
v -0.2 0.1 -2.1
v -0.2 0.2 -1.7
v -0.2 0.2 -1.8
v -0.2 0.2 -2
v -0.2 0.2 -2.1
v 0.3 0.1 -1.6
v 0.3 0.1 -1.7
v 0.3 0.1 -2.1
v 0.3 0.1 -2.2
v 0.3 0.2 -1.6
v 0.3 0.2 -1.7
v 0.3 0.2 -2.1
v 0.3 0.2 -2.2
v 0.9 0.1 -1.5
v 0.9 0.1 -1.6
v 0.9 0.1 -2.2
v 0.9 0.1 -2.3
v 0.9 0.2 -1.5
v 0.9 0.2 -1.6
v 0.9 0.2 -2.2
v 0.9 0.2 -2.3
v 1.5 0.1 -1.3
v 1.5 0.1 -1.5
v 1.5 0.1 -2.3
v 1.5 0.1 -2.5
v 1.5 0.2 -1.3
v 1.5 0.2 -1.5
v 1.5 0.2 -2.3
v 1.5 0.2 -2.5
v 2 0 3
v 2 0 -3
v 2 0.2 3
v 2 0.2 -3
v -2 0 3
v -2 0.2 3
v 2 0 3
v 2 0.2 3
v -1.8 0.1 -0.8
v -1.8 0.2 -0.8
v 1.8 0.1 -0.8
v 1.8 0.2 -0.8
v 0.8 0.1 -1.3
v 0.8 0.2 -1.3
v 0.9 0.1 -1.3
v 0.9 0.2 -1.3
v 1 0.1 -1.3
v 1 0.2 -1.3
v 1.1 0.1 -1.3
v 1.1 0.2 -1.3
v 1.2 0.1 -1.3
v 1.2 0.2 -1.3
v 1.3 0.1 -1.3
v 1.3 0.2 -1.3
v 1.4 0.1 -1.3
v 1.4 0.2 -1.3
v 1.5 0.1 -1.3
v 1.5 0.2 -1.3
v 0.2 0.1 -1.4
v 0.2 0.2 -1.4
v 0.8 0.1 -1.4
v 0.8 0.2 -1.4
v -1.4 0.1 -1.5
v -1.4 0.2 -1.5
v -0.9 0.1 -1.5
v -0.9 0.2 -1.5
v -0.3 0.1 -1.5
v -0.3 0.2 -1.5
v 0.2 0.1 -1.5
v 0.2 0.2 -1.5
v -1.5 0.1 -1.6
v -1.5 0.2 -1.6
v -1.4 0.1 -1.6
v -1.4 0.2 -1.6
v -0.9 0.1 -1.6
v -0.9 0.2 -1.6
v -0.8 0.1 -1.6
v -0.8 0.2 -1.6
v -0.3 0.1 -1.6
v -0.3 0.2 -1.6
v -1.5 0.1 -2
v -1.5 0.2 -2
v -1.2 0.1 -2
v -1.2 0.2 -2
v -1.1 0.1 -2
v -1.1 0.2 -2
v -1 0.1 -2
v -1 0.2 -2
v -0.8 0.1 -2
v -0.8 0.2 -2
v -0.7 0.1 -2
v -0.7 0.2 -2
v -0.6 0.1 -2
v -0.6 0.2 -2
v -0.2 0.1 -2
v -0.2 0.2 -2
v -1.2 0.1 -2.1
v -1.2 0.2 -2.1
v -1.1 0.1 -2.1
v -1.1 0.2 -2.1
v -0.2 0.1 -2.1
v -0.2 0.2 -2.1
v 0.3 0.1 -2.1
v 0.3 0.2 -2.1
v 0.3 0.1 -2.2
v 0.3 0.2 -2.2
v 0.9 0.1 -2.2
v 0.9 0.2 -2.2
v 0.9 0.1 -2.3
v 0.9 0.2 -2.3
v 1 0.1 -2.3
v 1 0.2 -2.3
v 1.1 0.1 -2.3
v 1.1 0.2 -2.3
v 1.2 0.1 -2.3
v 1.2 0.2 -2.3
v 1.3 0.1 -2.3
v 1.3 0.2 -2.3
v 1.4 0.1 -2.3
v 1.4 0.2 -2.3
v 1.5 0.1 -2.3
v 1.5 0.2 -2.3
v -1.8 0.1 -2.8
v -1.8 0.2 -2.8
v 1.8 0.1 -2.8
v 1.8 0.2 -2.8
v -1.8 0.1 2.8
v -1.8 0.2 2.8
v 1.8 0.1 2.8
v 1.8 0.2 2.8
v -1.8 0.1 -1
v -1.8 0.2 -1
v 1.8 0.1 -1
v 1.8 0.2 -1
v 0.9 0.1 -1.5
v 0.9 0.2 -1.5
v 1 0.1 -1.5
v 1 0.2 -1.5
v 1.1 0.1 -1.5
v 1.1 0.2 -1.5
v 1.2 0.1 -1.5
v 1.2 0.2 -1.5
v 1.3 0.1 -1.5
v 1.3 0.2 -1.5
v 1.4 0.1 -1.5
v 1.4 0.2 -1.5
v 1.5 0.1 -1.5
v 1.5 0.2 -1.5
v 0.3 0.1 -1.6
v 0.3 0.2 -1.6
v 0.9 0.1 -1.6
v 0.9 0.2 -1.6
v -1.2 0.1 -1.7
v -1.2 0.2 -1.7
v -1.1 0.1 -1.7
v -1.1 0.2 -1.7
v -0.2 0.1 -1.7
v -0.2 0.2 -1.7
v 0.3 0.1 -1.7
v 0.3 0.2 -1.7
v -1.5 0.1 -1.8
v -1.5 0.2 -1.8
v -1.2 0.1 -1.8
v -1.2 0.2 -1.8
v -1.1 0.1 -1.8
v -1.1 0.2 -1.8
v -1 0.1 -1.8
v -1 0.2 -1.8
v -0.8 0.1 -1.8
v -0.8 0.2 -1.8
v -0.7 0.1 -1.8
v -0.7 0.2 -1.8
v -0.6 0.1 -1.8
v -0.6 0.2 -1.8
v -0.2 0.1 -1.8
v -0.2 0.2 -1.8
v -1.5 0.1 -2.2
v -1.5 0.2 -2.2
v -1.4 0.1 -2.2
v -1.4 0.2 -2.2
v -0.9 0.1 -2.2
v -0.9 0.2 -2.2
v -0.8 0.1 -2.2
v -0.8 0.2 -2.2
v -0.3 0.1 -2.2
v -0.3 0.2 -2.2
v -1.4 0.1 -2.3
v -1.4 0.2 -2.3
v -0.9 0.1 -2.3
v -0.9 0.2 -2.3
v -0.3 0.1 -2.3
v -0.3 0.2 -2.3
v 0.2 0.1 -2.3
v 0.2 0.2 -2.3
v 0.2 0.1 -2.4
v 0.2 0.2 -2.4
v 0.8 0.1 -2.4
v 0.8 0.2 -2.4
v 0.8 0.1 -2.5
v 0.8 0.2 -2.5
v 0.9 0.1 -2.5
v 0.9 0.2 -2.5
v 1 0.1 -2.5
v 1 0.2 -2.5
v 1.1 0.1 -2.5
v 1.1 0.2 -2.5
v 1.2 0.1 -2.5
v 1.2 0.2 -2.5
v 1.3 0.1 -2.5
v 1.3 0.2 -2.5
v 1.4 0.1 -2.5
v 1.4 0.2 -2.5
v 1.5 0.1 -2.5
v 1.5 0.2 -2.5
v -2 0 -3
v -2 0.2 -3
v 2 0 -3
v 2 0.2 -3
v -2 0 3
v 2 0 3
v -1.8 0 2.8
v 1.8 0 2.8
v -1.8 0 -0.8
v 1.8 0 -0.8
v -1.8 0 -1
v 1.8 0 -1
v -1.8 0 -2.8
v 1.8 0 -2.8
v -2 0 -3
v 2 0 -3
v -1.8 0.1 2.8
v 1.8 0.1 2.8
v -1.8 0.1 -0.8
v 1.8 0.1 -0.8
v -1.8 0.1 -1
v 1.8 0.1 -1
v 0.8 0.1 -1.3
v 0.9 0.1 -1.3
v 1 0.1 -1.3
v 1.1 0.1 -1.3
v 1.2 0.1 -1.3
v 1.3 0.1 -1.3
v 1.4 0.1 -1.3
v 1.5 0.1 -1.3
v 0.2 0.1 -1.4
v 0.8 0.1 -1.4
v -1.4 0.1 -1.5
v -0.9 0.1 -1.5
v -0.3 0.1 -1.5
v 0.2 0.1 -1.5
v 0.9 0.1 -1.5
v 1 0.1 -1.5
v 1.1 0.1 -1.5
v 1.2 0.1 -1.5
v 1.3 0.1 -1.5
v 1.4 0.1 -1.5
v 1.5 0.1 -1.5
v -1.5 0.1 -1.6
v -1.4 0.1 -1.6
v -0.9 0.1 -1.6
v -0.8 0.1 -1.6
v -0.3 0.1 -1.6
v 0.3 0.1 -1.6
v 0.9 0.1 -1.6
v -1.2 0.1 -1.7
v -1.1 0.1 -1.7
v -0.2 0.1 -1.7
v 0.3 0.1 -1.7
v -1.5 0.1 -1.8
v -1.2 0.1 -1.8
v -1.1 0.1 -1.8
v -1 0.1 -1.8
v -0.8 0.1 -1.8
v -0.7 0.1 -1.8
v -0.6 0.1 -1.8
v -0.2 0.1 -1.8
v -1.5 0.1 -2
v -1.2 0.1 -2
v -1.1 0.1 -2
v -1 0.1 -2
v -0.8 0.1 -2
v -0.7 0.1 -2
v -0.6 0.1 -2
v -0.2 0.1 -2
v -1.2 0.1 -2.1
v -1.1 0.1 -2.1
v -0.2 0.1 -2.1
v 0.3 0.1 -2.1
v -1.5 0.1 -2.2
v -1.4 0.1 -2.2
v -0.9 0.1 -2.2
v -0.8 0.1 -2.2
v -0.3 0.1 -2.2
v 0.3 0.1 -2.2
v 0.9 0.1 -2.2
v -1.4 0.1 -2.3
v -0.9 0.1 -2.3
v -0.3 0.1 -2.3
v 0.2 0.1 -2.3
v 0.9 0.1 -2.3
v 1 0.1 -2.3
v 1.1 0.1 -2.3
v 1.2 0.1 -2.3
v 1.3 0.1 -2.3
v 1.4 0.1 -2.3
v 1.5 0.1 -2.3
v 0.2 0.1 -2.4
v 0.8 0.1 -2.4
v 0.8 0.1 -2.5
v 0.9 0.1 -2.5
v 1 0.1 -2.5
v 1.1 0.1 -2.5
v 1.2 0.1 -2.5
v 1.3 0.1 -2.5
v 1.4 0.1 -2.5
v 1.5 0.1 -2.5
v -1.8 0.1 -2.8
v 1.8 0.1 -2.8
v -2 0.2 3
v 2 0.2 3
v -1.8 0.2 2.8
v 1.8 0.2 2.8
v -1.8 0.2 -0.8
v 1.8 0.2 -0.8
v -1.8 0.2 -1
v 1.8 0.2 -1
v 0.8 0.2 -1.3
v 0.9 0.2 -1.3
v 1 0.2 -1.3
v 1.1 0.2 -1.3
v 1.2 0.2 -1.3
v 1.3 0.2 -1.3
v 1.4 0.2 -1.3
v 1.5 0.2 -1.3
v 0.2 0.2 -1.4
v 0.8 0.2 -1.4
v -1.4 0.2 -1.5
v -0.9 0.2 -1.5
v -0.3 0.2 -1.5
v 0.2 0.2 -1.5
v 0.8 0.2 -1.5
v 0.9 0.2 -1.5
v 1 0.2 -1.5
v 1.1 0.2 -1.5
v 1.2 0.2 -1.5
v 1.3 0.2 -1.5
v 1.4 0.2 -1.5
v 1.5 0.2 -1.5
v -1.5 0.2 -1.6
v -1.4 0.2 -1.6
v -0.9 0.2 -1.6
v -0.8 0.2 -1.6
v -0.3 0.2 -1.6
v 0.3 0.2 -1.6
v 0.9 0.2 -1.6
v -1.2 0.2 -1.7
v -1.1 0.2 -1.7
v -0.2 0.2 -1.7
v 0.3 0.2 -1.7
v -1.5 0.2 -1.8
v -1.2 0.2 -1.8
v -1.1 0.2 -1.8
v -1 0.2 -1.8
v -0.8 0.2 -1.8
v -0.7 0.2 -1.8
v -0.6 0.2 -1.8
v -0.2 0.2 -1.8
v -1.5 0.2 -2
v -1.2 0.2 -2
v -1.1 0.2 -2
v -1 0.2 -2
v -0.8 0.2 -2
v -0.7 0.2 -2
v -0.6 0.2 -2
v -0.2 0.2 -2
v -1.2 0.2 -2.1
v -1.1 0.2 -2.1
v -0.2 0.2 -2.1
v 0.3 0.2 -2.1
v -1.5 0.2 -2.2
v -1.4 0.2 -2.2
v -0.9 0.2 -2.2
v -0.8 0.2 -2.2
v -0.3 0.2 -2.2
v 0.3 0.2 -2.2
v 0.9 0.2 -2.2
v -1.4 0.2 -2.3
v -0.9 0.2 -2.3
v -0.3 0.2 -2.3
v 0.2 0.2 -2.3
v 0.8 0.2 -2.3
v 0.9 0.2 -2.3
v 1 0.2 -2.3
v 1.1 0.2 -2.3
v 1.2 0.2 -2.3
v 1.3 0.2 -2.3
v 1.4 0.2 -2.3
v 1.5 0.2 -2.3
v 0.2 0.2 -2.4
v 0.8 0.2 -2.4
v 0.8 0.2 -2.5
v 0.9 0.2 -2.5
v 1 0.2 -2.5
v 1.1 0.2 -2.5
v 1.2 0.2 -2.5
v 1.3 0.2 -2.5
v 1.4 0.2 -2.5
v 1.5 0.2 -2.5
v -1.8 0.2 -2.8
v 1.8 0.2 -2.8
v -2 0.2 -3
v 2 0.2 -3

# faces
f 3/3/1 2/3/1 1/3/1
f 4/3/1 2/3/1 3/3/1
f 9/1/1 6/1/1 5/1/1
f 10/1/1 6/1/1 9/1/1
f 11/1/1 8/1/1 7/1/1
f 12/1/1 8/1/1 11/1/1
f 17/1/1 14/1/1 13/1/1
f 18/1/1 14/1/1 17/1/1
f 19/1/1 16/1/1 15/1/1
f 20/1/1 16/1/1 19/1/1
f 25/1/1 22/1/1 21/1/1
f 26/1/1 22/1/1 25/1/1
f 27/1/1 24/1/1 23/1/1
f 28/1/1 24/1/1 27/1/1
f 31/1/1 30/1/1 29/1/1
f 32/1/1 30/1/1 31/1/1
f 35/2/1 34/2/1 33/2/1
f 36/2/1 34/2/1 35/2/1
f 41/2/1 38/2/1 37/2/1
f 42/2/1 38/2/1 41/2/1
f 43/2/1 40/2/1 39/2/1
f 44/2/1 40/2/1 43/2/1
f 49/2/1 46/2/1 45/2/1
f 50/2/1 46/2/1 49/2/1
f 51/2/1 48/2/1 47/2/1
f 52/2/1 48/2/1 51/2/1
f 57/5/1 54/5/1 53/5/1
f 58/5/1 54/5/1 57/5/1
f 59/5/1 56/5/1 55/5/1
f 60/5/1 56/5/1 59/5/1
f 65/3/1 62/3/1 61/3/1
f 66/3/1 62/3/1 65/3/1
f 67/3/1 64/3/1 63/3/1
f 68/3/1 64/3/1 67/3/1
f 69/3/2 70/3/2 73/3/2
f 73/3/2 70/3/2 74/3/2
f 71/3/2 72/3/2 75/3/2
f 75/3/2 72/3/2 76/3/2
f 77/1/2 78/1/2 81/1/2
f 81/1/2 78/1/2 82/1/2
f 79/1/2 80/1/2 83/1/2
f 83/1/2 80/1/2 84/1/2
f 85/1/2 86/1/2 89/1/2
f 89/1/2 86/1/2 90/1/2
f 87/1/2 88/1/2 91/1/2
f 91/1/2 88/1/2 92/1/2
f 93/1/2 94/1/2 95/1/2
f 95/1/2 94/1/2 96/1/2
f 97/2/2 98/2/2 99/2/2
f 99/2/2 98/2/2 100/2/2
f 101/2/2 102/2/2 105/2/2
f 105/2/2 102/2/2 106/2/2
f 103/2/2 104/2/2 107/2/2
f 107/2/2 104/2/2 108/2/2
f 109/2/2 110/2/2 113/2/2
f 113/2/2 110/2/2 114/2/2
f 111/2/2 112/2/2 115/2/2
f 115/2/2 112/2/2 116/2/2
f 117/2/2 118/2/2 121/2/2
f 121/2/2 118/2/2 122/2/2
f 119/2/2 120/2/2 123/2/2
f 123/2/2 120/2/2 124/2/2
f 125/5/2 126/5/2 129/5/2
f 129/5/2 126/5/2 130/5/2
f 127/5/2 128/5/2 131/5/2
f 131/5/2 128/5/2 132/5/2
f 133/3/2 134/3/2 135/3/2
f 135/3/2 134/3/2 136/3/2
f 139/3/3 138/3/3 137/3/3
f 140/3/3 138/3/3 139/3/3
f 143/3/3 142/3/3 141/3/3
f 144/3/3 142/3/3 143/3/3
f 147/5/3 146/5/3 145/5/3
f 148/5/3 146/5/3 147/5/3
f 149/7/3 148/7/3 147/7/3
f 150/7/3 148/7/3 149/7/3
f 151/5/3 150/5/3 149/5/3
f 152/5/3 150/5/3 151/5/3
f 153/7/3 152/7/3 151/7/3
f 154/7/3 152/7/3 153/7/3
f 155/5/3 154/5/3 153/5/3
f 156/5/3 154/5/3 155/5/3
f 157/7/3 156/7/3 155/7/3
f 158/7/3 156/7/3 157/7/3
f 159/5/3 158/5/3 157/5/3
f 160/5/3 158/5/3 159/5/3
f 163/2/3 162/2/3 161/2/3
f 164/2/3 162/2/3 163/2/3
f 167/1/3 166/1/3 165/1/3
f 168/1/3 166/1/3 167/1/3
f 171/2/3 170/2/3 169/2/3
f 172/2/3 170/2/3 171/2/3
f 175/1/3 174/1/3 173/1/3
f 176/1/3 174/1/3 175/1/3
f 179/1/3 178/1/3 177/1/3
f 180/1/3 178/1/3 179/1/3
f 181/2/3 180/2/3 179/2/3
f 182/2/3 180/2/3 181/2/3
f 185/1/3 184/1/3 183/1/3
f 186/1/3 184/1/3 185/1/3
f 189/1/3 188/1/3 187/1/3
f 190/1/3 188/1/3 189/1/3
f 193/2/3 192/2/3 191/2/3
f 194/2/3 192/2/3 193/2/3
f 197/2/3 196/2/3 195/2/3
f 198/2/3 196/2/3 197/2/3
f 201/1/3 200/1/3 199/1/3
f 202/1/3 200/1/3 201/1/3
f 205/2/3 204/2/3 203/2/3
f 206/2/3 204/2/3 205/2/3
f 209/2/3 208/2/3 207/2/3
f 210/2/3 208/2/3 209/2/3
f 213/7/3 212/7/3 211/7/3
f 214/7/3 212/7/3 213/7/3
f 215/5/3 214/5/3 213/5/3
f 216/5/3 214/5/3 215/5/3
f 217/7/3 216/7/3 215/7/3
f 218/7/3 216/7/3 217/7/3
f 219/5/3 218/5/3 217/5/3
f 220/5/3 218/5/3 219/5/3
f 221/7/3 220/7/3 219/7/3
f 222/7/3 220/7/3 221/7/3
f 223/5/3 222/5/3 221/5/3
f 224/5/3 222/5/3 223/5/3
f 227/3/3 226/3/3 225/3/3
f 228/3/3 226/3/3 227/3/3
f 229/3/4 230/3/4 231/3/4
f 231/3/4 230/3/4 232/3/4
f 233/3/4 234/3/4 235/3/4
f 235/3/4 234/3/4 236/3/4
f 237/7/4 238/7/4 239/7/4
f 239/7/4 238/7/4 240/7/4
f 239/5/4 240/5/4 241/5/4
f 241/5/4 240/5/4 242/5/4
f 241/7/4 242/7/4 243/7/4
f 243/7/4 242/7/4 244/7/4
f 243/5/4 244/5/4 245/5/4
f 245/5/4 244/5/4 246/5/4
f 245/7/4 246/7/4 247/7/4
f 247/7/4 246/7/4 248/7/4
f 247/5/4 248/5/4 249/5/4
f 249/5/4 248/5/4 250/5/4
f 251/2/4 252/2/4 253/2/4
f 253/2/4 252/2/4 254/2/4
f 255/1/4 256/1/4 257/1/4
f 257/1/4 256/1/4 258/1/4
f 259/2/4 260/2/4 261/2/4
f 261/2/4 260/2/4 262/2/4
f 263/1/4 264/1/4 265/1/4
f 265/1/4 264/1/4 266/1/4
f 267/1/4 268/1/4 269/1/4
f 269/1/4 268/1/4 270/1/4
f 271/2/4 272/2/4 273/2/4
f 273/2/4 272/2/4 274/2/4
f 275/2/4 276/2/4 277/2/4
f 277/2/4 276/2/4 278/2/4
f 279/1/4 280/1/4 281/1/4
f 281/1/4 280/1/4 282/1/4
f 283/1/4 284/1/4 285/1/4
f 285/1/4 284/1/4 286/1/4
f 285/2/4 286/2/4 287/2/4
f 287/2/4 286/2/4 288/2/4
f 289/1/4 290/1/4 291/1/4
f 291/1/4 290/1/4 292/1/4
f 293/2/4 294/2/4 295/2/4
f 295/2/4 294/2/4 296/2/4
f 297/2/4 298/2/4 299/2/4
f 299/2/4 298/2/4 300/2/4
f 301/5/4 302/5/4 303/5/4
f 303/5/4 302/5/4 304/5/4
f 303/7/4 304/7/4 305/7/4
f 305/7/4 304/7/4 306/7/4
f 305/5/4 306/5/4 307/5/4
f 307/5/4 306/5/4 308/5/4
f 307/7/4 308/7/4 309/7/4
f 309/7/4 308/7/4 310/7/4
f 309/5/4 310/5/4 311/5/4
f 311/5/4 310/5/4 312/5/4
f 311/7/4 312/7/4 313/7/4
f 313/7/4 312/7/4 314/7/4
f 313/5/4 314/5/4 315/5/4
f 315/5/4 314/5/4 316/5/4
f 317/3/4 318/3/4 319/3/4
f 319/3/4 318/3/4 320/3/4
f 323/3/5 322/3/5 321/3/5
f 324/3/5 322/3/5 323/3/5
f 325/3/5 323/3/5 321/3/5
f 325/4/5 324/4/5 323/4/5
f 326/3/5 322/3/5 324/3/5
f 326/4/5 324/4/5 325/4/5
f 327/3/5 325/3/5 321/3/5
f 327/3/5 326/3/5 325/3/5
f 328/3/5 322/3/5 326/3/5
f 328/3/5 326/3/5 327/3/5
f 329/3/5 327/3/5 321/3/5
f 329/6/5 328/6/5 327/6/5
f 330/3/5 322/3/5 328/3/5
f 330/6/5 328/6/5 329/6/5
f 331/3/5 329/3/5 321/3/5
f 331/3/5 330/3/5 329/3/5
f 332/3/5 322/3/5 330/3/5
f 332/3/5 330/3/5 331/3/5
f 333/4/6 334/4/6 335/4/6
f 335/4/6 334/4/6 336/4/6
f 337/6/6 338/6/6 339/6/6
f 339/6/6 338/6/6 340/6/6
f 340/6/6 338/6/6 341/6/6
f 341/6/6 338/6/6 342/6/6
f 342/6/6 338/6/6 343/6/6
f 343/6/6 338/6/6 344/6/6
f 344/6/6 338/6/6 345/6/6
f 345/6/6 338/6/6 346/6/6
f 337/6/6 339/6/6 347/6/6
f 347/6/6 339/6/6 348/6/6
f 337/6/6 347/6/6 349/6/6
f 349/6/6 347/6/6 350/6/6
f 350/6/6 347/6/6 351/6/6
f 351/6/6 347/6/6 352/6/6
f 346/6/6 338/6/6 359/6/6
f 337/6/6 349/6/6 360/6/6
f 360/6/6 349/6/6 361/6/6
f 350/6/6 351/6/6 362/6/6
f 362/6/6 351/6/6 363/6/6
f 363/6/6 351/6/6 364/6/6
f 357/6/6 358/6/6 366/6/6
f 358/6/6 359/6/6 366/6/6
f 353/6/6 354/6/6 366/6/6
f 354/6/6 355/6/6 366/6/6
f 355/6/6 356/6/6 366/6/6
f 356/6/6 357/6/6 366/6/6
f 365/6/6 366/6/6 370/6/6
f 337/6/6 360/6/6 371/6/6
f 367/6/6 368/6/6 372/6/6
f 372/6/6 368/6/6 373/6/6
f 369/6/6 370/6/6 378/6/6
f 337/6/6 371/6/6 379/6/6
f 371/6/6 372/6/6 379/6/6
f 372/6/6 373/6/6 379/6/6
f 373/6/6 374/6/6 379/6/6
f 379/6/6 374/6/6 380/6/6
f 380/6/6 374/6/6 381/6/6
f 381/6/6 374/6/6 382/6/6
f 375/6/6 376/6/6 383/6/6
f 383/6/6 376/6/6 384/6/6
f 377/6/6 378/6/6 385/6/6
f 378/6/6 370/6/6 386/6/6
f 385/6/6 378/6/6 386/6/6
f 380/6/6 381/6/6 387/6/6
f 387/6/6 381/6/6 388/6/6
f 386/6/6 370/6/6 389/6/6
f 370/6/6 366/6/6 390/6/6
f 389/6/6 370/6/6 390/6/6
f 337/6/6 379/6/6 391/6/6
f 390/6/6 366/6/6 396/6/6
f 366/6/6 359/6/6 397/6/6
f 396/6/6 366/6/6 397/6/6
f 391/6/6 392/6/6 398/6/6
f 394/6/6 395/6/6 399/6/6
f 393/6/6 394/6/6 399/6/6
f 399/6/6 395/6/6 400/6/6
f 397/6/6 359/6/6 402/6/6
f 402/6/6 359/6/6 403/6/6
f 403/6/6 359/6/6 404/6/6
f 404/6/6 359/6/6 405/6/6
f 405/6/6 359/6/6 406/6/6
f 406/6/6 359/6/6 407/6/6
f 359/6/6 338/6/6 408/6/6
f 407/6/6 359/6/6 408/6/6
f 400/6/6 401/6/6 409/6/6
f 398/6/6 399/6/6 409/6/6
f 399/6/6 400/6/6 409/6/6
f 409/6/6 410/6/6 411/6/6
f 408/6/6 338/6/6 418/6/6
f 391/6/6 398/6/6 419/6/6
f 417/6/6 418/6/6 419/6/6
f 416/6/6 417/6/6 419/6/6
f 337/6/6 391/6/6 419/6/6
f 415/6/6 416/6/6 419/6/6
f 414/6/6 415/6/6 419/6/6
f 413/6/6 414/6/6 419/6/6
f 412/6/6 413/6/6 419/6/6
f 411/6/6 412/6/6 419/6/6
f 409/6/6 411/6/6 419/6/6
f 398/6/6 409/6/6 419/6/6
f 418/6/6 338/6/6 420/6/6
f 419/6/6 418/6/6 420/6/6
f 421/3/6 422/3/6 423/3/6
f 423/3/6 422/3/6 424/3/6
f 421/3/6 423/3/6 425/3/6
f 424/3/6 422/3/6 426/3/6
f 421/3/6 425/3/6 427/3/6
f 425/3/6 426/3/6 427/3/6
f 426/3/6 422/3/6 428/3/6
f 427/3/6 426/3/6 428/3/6
f 429/5/6 430/5/6 438/5/6
f 437/2/6 438/2/6 442/2/6
f 438/5/6 430/5/6 443/5/6
f 442/2/6 438/2/6 443/2/6
f 430/7/6 431/7/6 444/7/6
f 443/5/6 430/5/6 444/5/6
f 431/5/6 432/5/6 445/5/6
f 444/7/6 431/7/6 445/7/6
f 432/7/6 433/7/6 446/7/6
f 445/5/6 432/5/6 446/5/6
f 433/5/6 434/5/6 447/5/6
f 446/7/6 433/7/6 447/7/6
f 434/7/6 435/7/6 448/7/6
f 447/5/6 434/5/6 448/5/6
f 435/5/6 436/5/6 449/5/6
f 448/7/6 435/7/6 449/7/6
f 449/5/6 436/5/6 450/5/6
f 439/1/6 440/1/6 452/1/6
f 452/1/6 440/1/6 453/1/6
f 442/2/6 443/2/6 455/2/6
f 443/2/6 444/2/6 455/2/6
f 441/2/6 442/2/6 455/2/6
f 455/2/6 444/2/6 456/2/6
f 456/2/6 444/2/6 457/2/6
f 453/1/6 454/1/6 458/1/6
f 452/1/6 453/1/6 458/1/6
f 451/1/6 452/1/6 458/1/6
f 458/1/6 454/1/6 459/1/6
f 455/2/6 456/2/6 460/2/6
f 454/2/6 455/2/6 460/2/6
f 460/2/6 456/2/6 461/2/6
f 451/1/6 458/1/6 462/1/6
f 462/1/6 458/1/6 463/1/6
f 459/1/6 454/1/6 464/1/6
f 464/1/6 454/1/6 465/1/6
f 454/2/6 460/2/6 466/2/6
f 465/1/6 454/1/6 466/1/6
f 466/2/6 460/2/6 467/2/6
f 467/2/6 460/2/6 468/2/6
f 468/2/6 460/2/6 469/2/6
f 465/1/6 466/1/6 473/1/6
f 473/1/6 466/1/6 474/1/6
f 467/2/6 468/2/6 475/2/6
f 475/2/6 468/2/6 476/2/6
f 470/1/6 471/1/6 478/1/6
f 473/1/6 474/1/6 479/1/6
f 472/1/6 473/1/6 479/1/6
f 476/2/6 477/2/6 480/2/6
f 475/2/6 476/2/6 480/2/6
f 474/2/6 475/2/6 480/2/6
f 470/1/6 478/1/6 482/1/6
f 478/1/6 479/1/6 482/1/6
f 482/1/6 479/1/6 483/1/6
f 479/1/6 474/1/6 484/1/6
f 483/1/6 479/1/6 484/1/6
f 474/2/6 480/2/6 485/2/6
f 484/1/6 474/1/6 485/1/6
f 480/2/6 481/2/6 485/2/6
f 485/2/6 481/2/6 486/2/6
f 486/2/6 481/2/6 487/2/6
f 483/1/6 484/1/6 489/1/6
f 489/1/6 484/1/6 490/1/6
f 487/2/6 488/2/6 491/2/6
f 486/2/6 487/2/6 491/2/6
f 491/2/6 488/2/6 492/2/6
f 492/2/6 488/2/6 493/2/6
f 493/2/6 488/2/6 494/2/6
f 492/2/6 493/2/6 501/2/6
f 493/5/6 494/5/6 502/5/6
f 501/2/6 493/2/6 502/2/6
f 502/5/6 494/5/6 503/5/6
f 494/7/6 495/7/6 504/7/6
f 503/5/6 494/5/6 504/5/6
f 495/5/6 496/5/6 505/5/6
f 504/7/6 495/7/6 505/7/6
f 496/7/6 497/7/6 506/7/6
f 505/5/6 496/5/6 506/5/6
f 497/5/6 498/5/6 507/5/6
f 506/7/6 497/7/6 507/7/6
f 498/7/6 499/7/6 508/7/6
f 507/5/6 498/5/6 508/5/6
f 499/5/6 500/5/6 509/5/6
f 508/7/6 499/7/6 509/7/6
f 509/5/6 500/5/6 510/5/6
f 421/3/6 427/3/6 511/3/6
f 428/3/6 422/3/6 512/3/6
f 421/3/6 511/3/6 513/3/6
f 511/3/6 512/3/6 513/3/6
f 512/3/6 422/3/6 514/3/6
f 513/3/6 512/3/6 514/3/6
