# MagicaVoxel @ Ephtracy

# group
o 

# material
mtllib tile32.mtl
usemtl palette

# normals
vn -1 0 0
vn 1 0 0
vn 0 0 1
vn 0 0 -1
vn 0 -1 0
vn 0 1 0

# texcoords
vt 0.689453 0.5
vt 0.693359 0.5
vt 0.970703 0.5
vt 0.974609 0.5
vt 0.978516 0.5

# verts
v -2 0 3
v -2 0 -3
v -2 0.2 3
v -2 0.2 -3
v -1.5 0.1 -2.3
v -1.5 0.1 -2.5
v -1.5 0.4 -2.3
v -1.5 0.4 -2.5
v -1.4 0.1 -2.2
v -1.4 0.1 -2.3
v -1.4 0.1 -2.5
v -1.4 0.1 -2.6
v -1.4 0.4 -2.2
v -1.4 0.4 -2.3
v -1.4 0.4 -2.5
v -1.4 0.4 -2.6
v -1.3 0.1 -2.1
v -1.3 0.1 -2.2
v -1.3 0.1 -2.6
v -1.3 0.1 -2.7
v -1.3 0.4 -2.1
v -1.3 0.4 -2.2
v -1.3 0.4 -2.6
v -1.3 0.4 -2.7
v -1.1 0.1 -2
v -1.1 0.1 -2.1
v -1.1 0.3 -2
v -1.1 0.3 -2.1
v -1 0.2 -1.9
v -1 0.2 -2
v -1 0.3 -1.9
v -1 0.3 -2
v -1 0.3 -2.1
v -1 0.4 -2
v -1 0.4 -2.1
v -0.8 0.1 -1.9
v -0.8 0.1 -2
v -0.8 0.2 -1.9
v -0.8 0.2 -2
v -0.7 0.3 -1.9
v -0.7 0.3 -2
v -0.7 0.4 -1.9
v -0.7 0.4 -2
v -0.4 0.2 -1.8
v -0.4 0.2 -1.9
v -0.4 0.3 -1.8
v -0.4 0.3 -1.9
v -0.2 0.1 -1.8
v -0.2 0.1 -1.9
v -0.2 0.2 -1.8
v -0.2 0.2 -1.9
v -0.0999999 0.3 -1.8
v -0.0999999 0.3 -1.9
v -0.0999999 0.4 -1.8
v -0.0999999 0.4 -1.9
v 0.1 0.2 -1.7
v 0.1 0.2 -1.8
v 0.1 0.3 -1.7
v 0.1 0.3 -1.8
v 0.3 0.1 -1.7
v 0.3 0.1 -1.8
v 0.3 0.2 -1.7
v 0.3 0.2 -1.8
v 0.4 0.3 -1.7
v 0.4 0.3 -1.8
v 0.4 0.4 -1.7
v 0.4 0.4 -1.8
v 0.6 0.2 -1.6
v 0.6 0.2 -1.7
v 0.6 0.3 -1.6
v 0.6 0.3 -1.7
v 0.8 0.1 -1.6
v 0.8 0.1 -1.7
v 0.8 0.2 -1.6
v 0.8 0.2 -1.7
v 0.8 0.3 -1.6
v 0.8 0.3 -1.7
v 0.8 0.4 -1.6
v 0.8 0.4 -1.7
v 1.1 0.1 -1.5
v 1.1 0.1 -1.6
v 1.1 0.4 -1.5
v 1.1 0.4 -1.6
v 1.2 0.1 -1.4
v 1.2 0.1 -1.5
v 1.2 0.4 -1.4
v 1.2 0.4 -1.5
v 1.3 0.1 -1.3
v 1.3 0.1 -1.4
v 1.3 0.4 -1.3
v 1.3 0.4 -1.4
v 1.8 0.1 2.8
v 1.8 0.1 -0.8
v 1.8 0.1 -1
v 1.8 0.1 -2.8
v 1.8 0.2 2.8
v 1.8 0.2 -0.8
v 1.8 0.2 -1
v 1.8 0.2 -2.8
v -1.8 0.1 2.8
v -1.8 0.1 -0.8
v -1.8 0.1 -1
v -1.8 0.1 -2.8
v -1.8 0.2 2.8
v -1.8 0.2 -0.8
v -1.8 0.2 -1
v -1.8 0.2 -2.8
v -1.2 0.1 -2.3
v -1.2 0.1 -2.4
v -1.2 0.2 -2.3
v -1.2 0.2 -2.4
v -1.2 0.3 -2.3
v -1.2 0.3 -2.4
v -1.2 0.4 -2.3
v -1.2 0.4 -2.4
v -1.1 0.1 -2.4
v -1.1 0.1 -2.5
v -1.1 0.1 -2.6
v -1.1 0.1 -2.7
v -1.1 0.2 -2.3
v -1.1 0.2 -2.4
v -1.1 0.2 -2.5
v -1.1 0.2 -2.6
v -1.1 0.3 -2.3
v -1.1 0.3 -2.4
v -1.1 0.3 -2.5
v -1.1 0.3 -2.6
v -1.1 0.4 -2.4
v -1.1 0.4 -2.5
v -1.1 0.4 -2.6
v -1.1 0.4 -2.7
v -1 0.1 -2.2
v -1 0.1 -2.3
v -1 0.4 -2.2
v -1 0.4 -2.3
v -0.9 0.1 -2.5
v -0.9 0.1 -2.6
v -0.9 0.2 -2.5
v -0.9 0.2 -2.6
v -0.9 0.3 -2.1
v -0.9 0.3 -2.2
v -0.9 0.3 -2.5
v -0.9 0.3 -2.6
v -0.9 0.4 -2.1
v -0.9 0.4 -2.2
v -0.9 0.4 -2.5
v -0.9 0.4 -2.6
v -0.8 0.1 -2.1
v -0.8 0.1 -2.2
v -0.8 0.2 -2.1
v -0.8 0.2 -2.2
v -0.6 0.2 -2.1
v -0.6 0.2 -2.2
v -0.6 0.3 -2.1
v -0.6 0.3 -2.2
v -0.5 0.3 -2
v -0.5 0.3 -2.1
v -0.5 0.4 -2
v -0.5 0.4 -2.1
v -0.4 0.1 -2
v -0.4 0.1 -2.1
v -0.4 0.2 -2
v -0.4 0.2 -2.1
v -0.2 0.2 -2
v -0.2 0.2 -2.1
v -0.2 0.3 -2
v -0.2 0.3 -2.1
v 2.38419e-07 0.3 -1.9
v 2.38419e-07 0.3 -2
v 2.38419e-07 0.4 -1.9
v 2.38419e-07 0.4 -2
v 0.1 0.1 -1.9
v 0.1 0.1 -2
v 0.1 0.2 -1.9
v 0.1 0.2 -2
v 0.3 0.2 -1.9
v 0.3 0.2 -2
v 0.3 0.3 -1.9
v 0.3 0.3 -2
v 0.5 0.3 -1.8
v 0.5 0.3 -1.9
v 0.5 0.4 -1.8
v 0.5 0.4 -1.9
v 0.6 0.1 -1.8
v 0.6 0.1 -1.9
v 0.6 0.2 -1.8
v 0.6 0.2 -1.9
v 0.8 0.2 -1.8
v 0.8 0.2 -1.9
v 0.8 0.3 -1.8
v 0.8 0.3 -1.9
v 0.9 0.3 -1.7
v 0.9 0.3 -1.8
v 0.9 0.4 -1.7
v 0.9 0.4 -1.8
v 1 0.1 -1.7
v 1 0.1 -1.8
v 1 0.2 -1.7
v 1 0.2 -1.8
v 1.1 0.1 -1.6
v 1.1 0.1 -1.7
v 1.1 0.2 -1.6
v 1.1 0.2 -1.7
v 1.1 0.2 -1.8
v 1.1 0.3 -1.6
v 1.1 0.3 -1.7
v 1.1 0.3 -1.8
v 1.1 0.4 -1.6
v 1.1 0.4 -1.7
v 1.2 0.1 -1.5
v 1.2 0.1 -1.6
v 1.2 0.2 -1.5
v 1.2 0.2 -1.6
v 1.2 0.2 -1.7
v 1.2 0.3 -1.5
v 1.2 0.3 -1.6
v 1.2 0.3 -1.7
v 1.2 0.4 -1.5
v 1.2 0.4 -1.6
v 1.3 0.1 -1.4
v 1.3 0.1 -1.5
v 1.3 0.2 -1.5
v 1.3 0.2 -1.6
v 1.3 0.3 -1.5
v 1.3 0.3 -1.6
v 1.3 0.4 -1.4
v 1.3 0.4 -1.5
v 1.4 0.1 -1.3
v 1.4 0.1 -1.4
v 1.4 0.4 -1.3
v 1.4 0.4 -1.4
v 2 0 3
v 2 0 -3
v 2 0.2 3
v 2 0.2 -3
v -2 0 3
v -2 0.2 3
v 2 0 3
v 2 0.2 3
v -1.8 0.1 -0.8
v -1.8 0.2 -0.8
v 1.8 0.1 -0.8
v 1.8 0.2 -0.8
v 1.3 0.1 -1.3
v 1.3 0.4 -1.3
v 1.4 0.1 -1.3
v 1.4 0.4 -1.3
v 1.2 0.1 -1.4
v 1.2 0.4 -1.4
v 1.3 0.1 -1.4
v 1.3 0.4 -1.4
v 1.1 0.1 -1.5
v 1.1 0.4 -1.5
v 1.2 0.1 -1.5
v 1.2 0.4 -1.5
v 0.6 0.2 -1.6
v 0.6 0.3 -1.6
v 0.8 0.1 -1.6
v 0.8 0.2 -1.6
v 0.8 0.3 -1.6
v 0.8 0.4 -1.6
v 1 0.1 -1.6
v 1 0.4 -1.6
v 1.1 0.1 -1.6
v 1.1 0.4 -1.6
v 0.1 0.2 -1.7
v 0.1 0.3 -1.7
v 0.3 0.1 -1.7
v 0.3 0.2 -1.7
v 0.4 0.3 -1.7
v 0.4 0.4 -1.7
v 0.6 0.2 -1.7
v 0.6 0.3 -1.7
v 0.8 0.1 -1.7
v 0.8 0.2 -1.7
v 0.8 0.3 -1.7
v 0.8 0.4 -1.7
v -0.4 0.2 -1.8
v -0.4 0.3 -1.8
v -0.2 0.1 -1.8
v -0.2 0.2 -1.8
v -0.0999999 0.3 -1.8
v -0.0999999 0.4 -1.8
v 0.1 0.2 -1.8
v 0.1 0.3 -1.8
v 0.3 0.1 -1.8
v 0.3 0.2 -1.8
v 0.4 0.3 -1.8
v 0.4 0.4 -1.8
v -1 0.2 -1.9
v -1 0.3 -1.9
v -0.8 0.1 -1.9
v -0.8 0.2 -1.9
v -0.7 0.3 -1.9
v -0.7 0.4 -1.9
v -0.4 0.2 -1.9
v -0.4 0.3 -1.9
v -0.2 0.1 -1.9
v -0.2 0.2 -1.9
v -0.0999999 0.3 -1.9
v -0.0999999 0.4 -1.9
v -1.1 0.1 -2
v -1.1 0.3 -2
v -1 0.2 -2
v -1 0.3 -2
v -1 0.4 -2
v -0.8 0.1 -2
v -0.8 0.2 -2
v -0.7 0.3 -2
v -0.7 0.4 -2
v -1.3 0.1 -2.1
v -1.3 0.4 -2.1
v -1.1 0.1 -2.1
v -1.1 0.3 -2.1
v -1.1 0.4 -2.1
v -1 0.3 -2.1
v -1 0.4 -2.1
v -1.4 0.1 -2.2
v -1.4 0.4 -2.2
v -1.3 0.1 -2.2
v -1.3 0.4 -2.2
v -1.5 0.1 -2.3
v -1.5 0.4 -2.3
v -1.4 0.1 -2.3
v -1.4 0.4 -2.3
v -1.2 0.1 -2.4
v -1.2 0.2 -2.4
v -1.2 0.3 -2.4
v -1.2 0.4 -2.4
v -1.1 0.1 -2.4
v -1.1 0.2 -2.4
v -1.1 0.3 -2.4
v -1.1 0.4 -2.4
v -1.1 0.1 -2.5
v -1.1 0.2 -2.5
v -1.1 0.3 -2.5
v -1.1 0.4 -2.5
v -0.9 0.1 -2.5
v -0.9 0.2 -2.5
v -0.9 0.3 -2.5
v -0.9 0.4 -2.5
v -1.8 0.1 -2.8
v -1.8 0.2 -2.8
v 1.8 0.1 -2.8
v 1.8 0.2 -2.8
v -1.8 0.1 2.8
v -1.8 0.2 2.8
v 1.8 0.1 2.8
v 1.8 0.2 2.8
v -1.8 0.1 -1
v -1.8 0.2 -1
v 1.8 0.1 -1
v 1.8 0.2 -1
v 1.3 0.1 -1.4
v 1.3 0.4 -1.4
v 1.4 0.1 -1.4
v 1.4 0.4 -1.4
v 1.2 0.1 -1.5
v 1.2 0.2 -1.5
v 1.2 0.3 -1.5
v 1.2 0.4 -1.5
v 1.3 0.1 -1.5
v 1.3 0.2 -1.5
v 1.3 0.3 -1.5
v 1.3 0.4 -1.5
v 1.1 0.1 -1.6
v 1.1 0.2 -1.6
v 1.1 0.3 -1.6
v 1.1 0.4 -1.6
v 1.2 0.1 -1.6
v 1.2 0.2 -1.6
v 1.2 0.3 -1.6
v 1.2 0.4 -1.6
v 1.3 0.2 -1.6
v 1.3 0.3 -1.6
v 0.9 0.3 -1.7
v 0.9 0.4 -1.7
v 1 0.1 -1.7
v 1 0.2 -1.7
v 1 0.3 -1.7
v 1 0.4 -1.7
v 1.1 0.1 -1.7
v 1.1 0.2 -1.7
v 1.1 0.3 -1.7
v 1.1 0.4 -1.7
v 1.2 0.2 -1.7
v 1.2 0.3 -1.7
v 0.5 0.3 -1.8
v 0.5 0.4 -1.8
v 0.6 0.1 -1.8
v 0.6 0.2 -1.8
v 0.8 0.2 -1.8
v 0.8 0.3 -1.8
v 0.9 0.3 -1.8
v 0.9 0.4 -1.8
v 1 0.1 -1.8
v 1 0.2 -1.8
v 1 0.3 -1.8
v 1.1 0.2 -1.8
v 1.1 0.3 -1.8
v 2.38419e-07 0.3 -1.9
v 2.38419e-07 0.4 -1.9
v 0.1 0.1 -1.9
v 0.1 0.2 -1.9
v 0.3 0.2 -1.9
v 0.3 0.3 -1.9
v 0.5 0.3 -1.9
v 0.5 0.4 -1.9
v 0.6 0.1 -1.9
v 0.6 0.2 -1.9
v 0.8 0.2 -1.9
v 0.8 0.3 -1.9
v -0.5 0.3 -2
v -0.5 0.4 -2
v -0.4 0.1 -2
v -0.4 0.2 -2
v -0.2 0.2 -2
v -0.2 0.3 -2
v 2.38419e-07 0.3 -2
v 2.38419e-07 0.4 -2
v 0.1 0.1 -2
v 0.1 0.2 -2
v 0.3 0.2 -2
v 0.3 0.3 -2
v -0.9 0.3 -2.1
v -0.9 0.4 -2.1
v -0.8 0.1 -2.1
v -0.8 0.2 -2.1
v -0.6 0.2 -2.1
v -0.6 0.3 -2.1
v -0.5 0.3 -2.1
v -0.5 0.4 -2.1
v -0.4 0.1 -2.1
v -0.4 0.2 -2.1
v -0.2 0.2 -2.1
v -0.2 0.3 -2.1
v -1 0.1 -2.2
v -1 0.4 -2.2
v -0.9 0.3 -2.2
v -0.9 0.4 -2.2
v -0.8 0.1 -2.2
v -0.8 0.2 -2.2
v -0.6 0.2 -2.2
v -0.6 0.3 -2.2
v -1.2 0.1 -2.3
v -1.2 0.2 -2.3
v -1.2 0.3 -2.3
v -1.2 0.4 -2.3
v -1.1 0.2 -2.3
v -1.1 0.3 -2.3
v -1 0.1 -2.3
v -1 0.4 -2.3
v -1.5 0.1 -2.5
v -1.5 0.4 -2.5
v -1.4 0.1 -2.5
v -1.4 0.4 -2.5
v -1.4 0.1 -2.6
v -1.4 0.4 -2.6
v -1.3 0.1 -2.6
v -1.3 0.4 -2.6
v -1.1 0.1 -2.6
v -1.1 0.2 -2.6
v -1.1 0.3 -2.6
v -1.1 0.4 -2.6
v -0.9 0.1 -2.6
v -0.9 0.2 -2.6
v -0.9 0.3 -2.6
v -0.9 0.4 -2.6
v -1.3 0.1 -2.7
v -1.3 0.4 -2.7
v -1.1 0.1 -2.7
v -1.1 0.4 -2.7
v -2 0 -3
v -2 0.2 -3
v 2 0 -3
v 2 0.2 -3
v -2 0 3
v 2 0 3
v -1.8 0 2.8
v 1.8 0 2.8
v -1.8 0 -0.8
v 1.8 0 -0.8
v -1.8 0 -1
v 1.8 0 -1
v -1.8 0 -2.8
v 1.8 0 -2.8
v -2 0 -3
v 2 0 -3
v 1.2 0.2 -1.5
v 1.3 0.2 -1.5
v 0.6 0.2 -1.6
v 0.8 0.2 -1.6
v 1.1 0.2 -1.6
v 1.2 0.2 -1.6
v 1.3 0.2 -1.6
v 0.1 0.2 -1.7
v 0.3 0.2 -1.7
v 0.6 0.2 -1.7
v 0.8 0.2 -1.7
v 1 0.2 -1.7
v 1.1 0.2 -1.7
v 1.2 0.2 -1.7
v -0.4 0.2 -1.8
v -0.2 0.2 -1.8
v 0.1 0.2 -1.8
v 0.3 0.2 -1.8
v 0.6 0.2 -1.8
v 0.8 0.2 -1.8
v 1 0.2 -1.8
v 1.1 0.2 -1.8
v -1 0.2 -1.9
v -0.8 0.2 -1.9
v -0.4 0.2 -1.9
v -0.2 0.2 -1.9
v 0.1 0.2 -1.9
v 0.3 0.2 -1.9
v 0.6 0.2 -1.9
v 0.8 0.2 -1.9
v -1 0.2 -2
v -0.8 0.2 -2
v -0.4 0.2 -2
v -0.2 0.2 -2
v 0.1 0.2 -2
v 0.3 0.2 -2
v -0.8 0.2 -2.1
v -0.6 0.2 -2.1
v -0.4 0.2 -2.1
v -0.2 0.2 -2.1
v -0.8 0.2 -2.2
v -0.6 0.2 -2.2
v -1.2 0.2 -2.3
v -1.1 0.2 -2.3
v -1.2 0.2 -2.4
v -1.1 0.2 -2.4
v -1.1 0.3 -2.5
v -0.9 0.3 -2.5
v -1.1 0.3 -2.6
v -0.9 0.3 -2.6
v -1.8 0.1 2.8
v 1.8 0.1 2.8
v -1.8 0.1 -0.8
v 1.8 0.1 -0.8
v -1.8 0.1 -1
v 1.8 0.1 -1
v 1.3 0.1 -1.3
v 1.4 0.1 -1.3
v 1.2 0.1 -1.4
v 1.3 0.1 -1.4
v 1.4 0.1 -1.4
v 1.1 0.1 -1.5
v 1.2 0.1 -1.5
v 1.3 0.1 -1.5
v 0.8 0.1 -1.6
v 1 0.1 -1.6
v 1.1 0.1 -1.6
v 1.2 0.1 -1.6
v 0.3 0.1 -1.7
v 0.8 0.1 -1.7
v 1 0.1 -1.7
v 1.1 0.1 -1.7
v -0.2 0.1 -1.8
v 0.3 0.1 -1.8
v 0.6 0.1 -1.8
v 1 0.1 -1.8
v -0.8 0.1 -1.9
v -0.2 0.1 -1.9
v 0.1 0.1 -1.9
v 0.6 0.1 -1.9
v -1.1 0.1 -2
v -0.8 0.1 -2
v -0.4 0.1 -2
v 0.1 0.1 -2
v -1.3 0.1 -2.1
v -1.1 0.1 -2.1
v -0.8 0.1 -2.1
v -0.4 0.1 -2.1
v -1.4 0.1 -2.2
v -1.3 0.1 -2.2
v -1 0.1 -2.2
v -0.8 0.1 -2.2
v -1.5 0.1 -2.3
v -1.4 0.1 -2.3
v -1.2 0.1 -2.3
v -1 0.1 -2.3
v -1.2 0.1 -2.4
v -1.1 0.1 -2.4
v -1.5 0.1 -2.5
v -1.4 0.1 -2.5
v -1.1 0.1 -2.5
v -0.9 0.1 -2.5
v -1.4 0.1 -2.6
v -1.3 0.1 -2.6
v -1.1 0.1 -2.6
v -0.9 0.1 -2.6
v -1.3 0.1 -2.7
v -1.1 0.1 -2.7
v -1.8 0.1 -2.8
v 1.8 0.1 -2.8
v -2 0.2 3
v 2 0.2 3
v -1.8 0.2 2.8
v 1.8 0.2 2.8
v -1.8 0.2 -0.8
v 1.8 0.2 -0.8
v -1.8 0.2 -1
v 1.8 0.2 -1
v -1.1 0.2 -2.5
v -0.9 0.2 -2.5
v -1.1 0.2 -2.6
v -0.9 0.2 -2.6
v -1.8 0.2 -2.8
v 1.8 0.2 -2.8
v -2 0.2 -3
v 2 0.2 -3
v 1.2 0.3 -1.5
v 1.3 0.3 -1.5
v 0.6 0.3 -1.6
v 0.8 0.3 -1.6
v 1.1 0.3 -1.6
v 1.2 0.3 -1.6
v 1.3 0.3 -1.6
v 0.1 0.3 -1.7
v 0.4 0.3 -1.7
v 0.6 0.3 -1.7
v 0.8 0.3 -1.7
v 0.9 0.3 -1.7
v 1 0.3 -1.7
v 1.1 0.3 -1.7
v 1.2 0.3 -1.7
v -0.4 0.3 -1.8
v -0.0999999 0.3 -1.8
v 0.1 0.3 -1.8
v 0.4 0.3 -1.8
v 0.5 0.3 -1.8
v 0.8 0.3 -1.8
v 0.9 0.3 -1.8
v 1 0.3 -1.8
v 1.1 0.3 -1.8
v -1 0.3 -1.9
v -0.7 0.3 -1.9
v -0.4 0.3 -1.9
v -0.0999999 0.3 -1.9
v 2.38419e-07 0.3 -1.9
v 0.3 0.3 -1.9
v 0.5 0.3 -1.9
v 0.8 0.3 -1.9
v -1.1 0.3 -2
v -1 0.3 -2
v -0.7 0.3 -2
v -0.5 0.3 -2
v -0.2 0.3 -2
v 2.38419e-07 0.3 -2
v 0.3 0.3 -2
v -1.1 0.3 -2.1
v -1 0.3 -2.1
v -0.9 0.3 -2.1
v -0.6 0.3 -2.1
v -0.5 0.3 -2.1
v -0.2 0.3 -2.1
v -0.9 0.3 -2.2
v -0.6 0.3 -2.2
v -1.2 0.3 -2.3
v -1.1 0.3 -2.3
v -1.2 0.3 -2.4
v -1.1 0.3 -2.4
v 1.3 0.4 -1.3
v 1.4 0.4 -1.3
v 1.2 0.4 -1.4
v 1.3 0.4 -1.4
v 1.4 0.4 -1.4
v 1.1 0.4 -1.5
v 1.2 0.4 -1.5
v 1.3 0.4 -1.5
v 0.8 0.4 -1.6
v 1 0.4 -1.6
v 1.1 0.4 -1.6
v 1.2 0.4 -1.6
v 0.4 0.4 -1.7
v 0.8 0.4 -1.7
v 0.9 0.4 -1.7
v 1 0.4 -1.7
v 1.1 0.4 -1.7
v -0.0999999 0.4 -1.8
v 0.4 0.4 -1.8
v 0.5 0.4 -1.8
v 0.9 0.4 -1.8
v -0.7 0.4 -1.9
v -0.0999999 0.4 -1.9
v 2.38419e-07 0.4 -1.9
v 0.5 0.4 -1.9
v -1 0.4 -2
v -0.7 0.4 -2
v -0.5 0.4 -2
v 2.38419e-07 0.4 -2
v -1.3 0.4 -2.1
v -1.1 0.4 -2.1
v -1 0.4 -2.1
v -0.9 0.4 -2.1
v -0.5 0.4 -2.1
v -1.4 0.4 -2.2
v -1.3 0.4 -2.2
v -1.1 0.4 -2.2
v -1 0.4 -2.2
v -0.9 0.4 -2.2
v -1.5 0.4 -2.3
v -1.4 0.4 -2.3
v -1.2 0.4 -2.3
v -1 0.4 -2.3
v -1.2 0.4 -2.4
v -1.1 0.4 -2.4
v -1.5 0.4 -2.5
v -1.4 0.4 -2.5
v -1.1 0.4 -2.5
v -0.9 0.4 -2.5
v -1.4 0.4 -2.6
v -1.3 0.4 -2.6
v -1.1 0.4 -2.6
v -0.9 0.4 -2.6
v -1.3 0.4 -2.7
v -1.1 0.4 -2.7

# faces
f 3/3/1 2/3/1 1/3/1
f 4/3/1 2/3/1 3/3/1
f 7/2/1 6/2/1 5/2/1
f 8/2/1 6/2/1 7/2/1
f 13/2/1 10/2/1 9/2/1
f 14/2/1 10/2/1 13/2/1
f 15/2/1 12/2/1 11/2/1
f 16/2/1 12/2/1 15/2/1
f 21/2/1 18/2/1 17/2/1
f 22/2/1 18/2/1 21/2/1
f 23/2/1 20/2/1 19/2/1
f 24/2/1 20/2/1 23/2/1
f 27/1/1 26/1/1 25/1/1
f 28/1/1 26/1/1 27/1/1
f 31/1/1 30/1/1 29/1/1
f 32/1/1 30/1/1 31/1/1
f 34/1/1 33/1/1 32/1/1
f 35/1/1 33/1/1 34/1/1
f 38/1/1 37/1/1 36/1/1
f 39/1/1 37/1/1 38/1/1
f 42/1/1 41/1/1 40/1/1
f 43/1/1 41/1/1 42/1/1
f 46/1/1 45/1/1 44/1/1
f 47/1/1 45/1/1 46/1/1
f 50/1/1 49/1/1 48/1/1
f 51/1/1 49/1/1 50/1/1
f 54/1/1 53/1/1 52/1/1
f 55/1/1 53/1/1 54/1/1
f 58/1/1 57/1/1 56/1/1
f 59/1/1 57/1/1 58/1/1
f 62/1/1 61/1/1 60/1/1
f 63/1/1 61/1/1 62/1/1
f 66/1/1 65/1/1 64/1/1
f 67/1/1 65/1/1 66/1/1
f 70/1/1 69/1/1 68/1/1
f 71/1/1 69/1/1 70/1/1
f 74/1/1 73/1/1 72/1/1
f 75/1/1 73/1/1 74/1/1
f 78/1/1 77/1/1 76/1/1
f 79/1/1 77/1/1 78/1/1
f 82/2/1 81/2/1 80/2/1
f 83/2/1 81/2/1 82/2/1
f 86/2/1 85/2/1 84/2/1
f 87/2/1 85/2/1 86/2/1
f 90/2/1 89/2/1 88/2/1
f 91/2/1 89/2/1 90/2/1
f 96/3/1 93/3/1 92/3/1
f 97/3/1 93/3/1 96/3/1
f 98/3/1 95/3/1 94/3/1
f 99/3/1 95/3/1 98/3/1
f 100/3/2 101/3/2 104/3/2
f 104/3/2 101/3/2 105/3/2
f 102/3/2 103/3/2 106/3/2
f 106/3/2 103/3/2 107/3/2
f 108/2/2 109/2/2 110/2/2
f 110/2/2 109/2/2 111/2/2
f 112/2/2 113/2/2 114/2/2
f 114/2/2 113/2/2 115/2/2
f 116/2/2 117/2/2 121/2/2
f 121/2/2 117/2/2 122/2/2
f 118/2/2 119/2/2 123/2/2
f 121/2/2 122/2/2 124/2/2
f 122/2/2 123/2/2 124/2/2
f 120/2/2 121/2/2 124/2/2
f 124/2/2 123/2/2 125/2/2
f 125/2/2 123/2/2 126/2/2
f 123/2/2 119/2/2 127/2/2
f 126/2/2 123/2/2 127/2/2
f 125/2/2 126/2/2 128/2/2
f 128/2/2 126/2/2 129/2/2
f 127/2/2 119/2/2 130/2/2
f 130/2/2 119/2/2 131/2/2
f 132/2/2 133/2/2 134/2/2
f 134/2/2 133/2/2 135/2/2
f 136/2/2 137/2/2 138/2/2
f 138/2/2 137/2/2 139/2/2
f 140/1/2 141/1/2 144/1/2
f 144/1/2 141/1/2 145/1/2
f 142/2/2 143/2/2 146/2/2
f 146/2/2 143/2/2 147/2/2
f 148/1/2 149/1/2 150/1/2
f 150/1/2 149/1/2 151/1/2
f 152/1/2 153/1/2 154/1/2
f 154/1/2 153/1/2 155/1/2
f 156/1/2 157/1/2 158/1/2
f 158/1/2 157/1/2 159/1/2
f 160/1/2 161/1/2 162/1/2
f 162/1/2 161/1/2 163/1/2
f 164/1/2 165/1/2 166/1/2
f 166/1/2 165/1/2 167/1/2
f 168/1/2 169/1/2 170/1/2
f 170/1/2 169/1/2 171/1/2
f 172/1/2 173/1/2 174/1/2
f 174/1/2 173/1/2 175/1/2
f 176/1/2 177/1/2 178/1/2
f 178/1/2 177/1/2 179/1/2
f 180/1/2 181/1/2 182/1/2
f 182/1/2 181/1/2 183/1/2
f 184/1/2 185/1/2 186/1/2
f 186/1/2 185/1/2 187/1/2
f 188/1/2 189/1/2 190/1/2
f 190/1/2 189/1/2 191/1/2
f 192/1/2 193/1/2 194/1/2
f 194/1/2 193/1/2 195/1/2
f 196/1/2 197/1/2 198/1/2
f 198/1/2 197/1/2 199/1/2
f 200/2/2 201/2/2 202/2/2
f 202/2/2 201/2/2 203/2/2
f 203/2/2 204/2/2 206/2/2
f 206/2/2 204/2/2 207/2/2
f 205/2/2 206/2/2 208/2/2
f 208/2/2 206/2/2 209/2/2
f 210/2/2 211/2/2 212/2/2
f 212/2/2 211/2/2 213/2/2
f 213/2/2 214/2/2 216/2/2
f 216/2/2 214/2/2 217/2/2
f 215/2/2 216/2/2 218/2/2
f 218/2/2 216/2/2 219/2/2
f 220/2/2 221/2/2 222/2/2
f 220/2/2 222/2/2 224/2/2
f 222/2/2 223/2/2 224/2/2
f 224/2/2 223/2/2 225/2/2
f 220/2/2 224/2/2 226/2/2
f 226/2/2 224/2/2 227/2/2
f 228/2/2 229/2/2 230/2/2
f 230/2/2 229/2/2 231/2/2
f 232/3/2 233/3/2 234/3/2
f 234/3/2 233/3/2 235/3/2
f 238/3/3 237/3/3 236/3/3
f 239/3/3 237/3/3 238/3/3
f 242/3/3 241/3/3 240/3/3
f 243/3/3 241/3/3 242/3/3
f 246/2/3 245/2/3 244/2/3
f 247/2/3 245/2/3 246/2/3
f 250/2/3 249/2/3 248/2/3
f 251/2/3 249/2/3 250/2/3
f 254/2/3 253/2/3 252/2/3
f 255/2/3 253/2/3 254/2/3
f 259/1/3 257/1/3 256/1/3
f 260/1/3 257/1/3 259/1/3
f 262/1/3 259/1/3 258/1/3
f 262/1/3 261/1/3 260/1/3
f 262/1/3 260/1/3 259/1/3
f 263/1/3 261/1/3 262/1/3
f 264/2/3 263/2/3 262/2/3
f 265/2/3 263/2/3 264/2/3
f 269/1/3 267/1/3 266/1/3
f 270/1/3 267/1/3 269/1/3
f 270/1/3 269/1/3 268/1/3
f 272/1/3 270/1/3 268/1/3
f 272/1/3 271/1/3 270/1/3
f 273/1/3 271/1/3 272/1/3
f 274/1/3 272/1/3 268/1/3
f 275/1/3 272/1/3 274/1/3
f 276/1/3 271/1/3 273/1/3
f 277/1/3 271/1/3 276/1/3
f 281/1/3 279/1/3 278/1/3
f 282/1/3 279/1/3 281/1/3
f 282/1/3 281/1/3 280/1/3
f 284/1/3 282/1/3 280/1/3
f 284/1/3 283/1/3 282/1/3
f 285/1/3 283/1/3 284/1/3
f 286/1/3 284/1/3 280/1/3
f 287/1/3 284/1/3 286/1/3
f 288/1/3 283/1/3 285/1/3
f 289/1/3 283/1/3 288/1/3
f 293/1/3 291/1/3 290/1/3
f 294/1/3 291/1/3 293/1/3
f 294/1/3 293/1/3 292/1/3
f 296/1/3 294/1/3 292/1/3
f 296/1/3 295/1/3 294/1/3
f 297/1/3 295/1/3 296/1/3
f 298/1/3 296/1/3 292/1/3
f 299/1/3 296/1/3 298/1/3
f 300/1/3 295/1/3 297/1/3
f 301/1/3 295/1/3 300/1/3
f 304/1/3 303/1/3 302/1/3
f 305/1/3 303/1/3 304/1/3
f 307/1/3 304/1/3 302/1/3
f 308/1/3 304/1/3 307/1/3
f 309/1/3 306/1/3 305/1/3
f 310/1/3 306/1/3 309/1/3
f 313/2/3 312/2/3 311/2/3
f 314/2/3 312/2/3 313/2/3
f 315/2/3 312/2/3 314/2/3
f 316/1/3 315/1/3 314/1/3
f 317/1/3 315/1/3 316/1/3
f 320/2/3 319/2/3 318/2/3
f 321/2/3 319/2/3 320/2/3
f 324/2/3 323/2/3 322/2/3
f 325/2/3 323/2/3 324/2/3
f 330/2/3 327/2/3 326/2/3
f 331/2/3 327/2/3 330/2/3
f 332/2/3 329/2/3 328/2/3
f 333/2/3 329/2/3 332/2/3
f 338/2/3 335/2/3 334/2/3
f 339/2/3 335/2/3 338/2/3
f 340/2/3 337/2/3 336/2/3
f 341/2/3 337/2/3 340/2/3
f 344/3/3 343/3/3 342/3/3
f 345/3/3 343/3/3 344/3/3
f 346/3/4 347/3/4 348/3/4
f 348/3/4 347/3/4 349/3/4
f 350/3/4 351/3/4 352/3/4
f 352/3/4 351/3/4 353/3/4
f 354/2/4 355/2/4 356/2/4
f 356/2/4 355/2/4 357/2/4
f 358/2/4 359/2/4 362/2/4
f 362/2/4 359/2/4 363/2/4
f 360/2/4 361/2/4 364/2/4
f 364/2/4 361/2/4 365/2/4
f 366/2/4 367/2/4 370/2/4
f 370/2/4 367/2/4 371/2/4
f 368/2/4 369/2/4 372/2/4
f 372/2/4 369/2/4 373/2/4
f 371/2/4 372/2/4 374/2/4
f 374/2/4 372/2/4 375/2/4
f 376/1/4 377/1/4 380/1/4
f 380/1/4 377/1/4 381/1/4
f 378/2/4 379/2/4 382/2/4
f 382/2/4 379/2/4 383/2/4
f 380/2/4 381/2/4 384/2/4
f 384/2/4 381/2/4 385/2/4
f 383/2/4 384/2/4 386/2/4
f 386/2/4 384/2/4 387/2/4
f 390/1/4 391/1/4 392/1/4
f 388/1/4 389/1/4 393/1/4
f 393/1/4 389/1/4 394/1/4
f 392/1/4 393/1/4 394/1/4
f 394/1/4 389/1/4 395/1/4
f 390/1/4 392/1/4 396/1/4
f 392/1/4 394/1/4 396/1/4
f 396/1/4 394/1/4 397/1/4
f 397/1/4 394/1/4 398/1/4
f 397/2/4 398/2/4 399/2/4
f 399/2/4 398/2/4 400/2/4
f 403/1/4 404/1/4 405/1/4
f 401/1/4 402/1/4 406/1/4
f 406/1/4 402/1/4 407/1/4
f 405/1/4 406/1/4 407/1/4
f 407/1/4 402/1/4 408/1/4
f 403/1/4 405/1/4 409/1/4
f 405/1/4 407/1/4 409/1/4
f 409/1/4 407/1/4 410/1/4
f 410/1/4 407/1/4 411/1/4
f 411/1/4 407/1/4 412/1/4
f 415/1/4 416/1/4 417/1/4
f 413/1/4 414/1/4 418/1/4
f 418/1/4 414/1/4 419/1/4
f 417/1/4 418/1/4 419/1/4
f 419/1/4 414/1/4 420/1/4
f 415/1/4 417/1/4 421/1/4
f 417/1/4 419/1/4 421/1/4
f 421/1/4 419/1/4 422/1/4
f 422/1/4 419/1/4 423/1/4
f 423/1/4 419/1/4 424/1/4
f 427/1/4 428/1/4 429/1/4
f 425/1/4 426/1/4 430/1/4
f 430/1/4 426/1/4 431/1/4
f 429/1/4 430/1/4 431/1/4
f 431/1/4 426/1/4 432/1/4
f 427/1/4 429/1/4 433/1/4
f 429/1/4 431/1/4 433/1/4
f 433/1/4 431/1/4 434/1/4
f 434/1/4 431/1/4 435/1/4
f 435/1/4 431/1/4 436/1/4
f 437/1/4 438/1/4 439/1/4
f 439/1/4 438/1/4 440/1/4
f 437/1/4 439/1/4 441/1/4
f 441/1/4 439/1/4 442/1/4
f 442/1/4 439/1/4 443/1/4
f 443/1/4 439/1/4 444/1/4
f 445/2/4 446/2/4 449/2/4
f 447/2/4 448/2/4 450/2/4
f 445/2/4 449/2/4 451/2/4
f 449/2/4 450/2/4 451/2/4
f 450/2/4 448/2/4 452/2/4
f 451/2/4 450/2/4 452/2/4
f 453/2/4 454/2/4 455/2/4
f 455/2/4 454/2/4 456/2/4
f 457/2/4 458/2/4 459/2/4
f 459/2/4 458/2/4 460/2/4
f 461/2/4 462/2/4 465/2/4
f 465/2/4 462/2/4 466/2/4
f 463/2/4 464/2/4 467/2/4
f 467/2/4 464/2/4 468/2/4
f 469/2/4 470/2/4 471/2/4
f 471/2/4 470/2/4 472/2/4
f 473/3/4 474/3/4 475/3/4
f 475/3/4 474/3/4 476/3/4
f 479/3/5 478/3/5 477/3/5
f 480/3/5 478/3/5 479/3/5
f 481/3/5 479/3/5 477/3/5
f 481/4/5 480/4/5 479/4/5
f 482/3/5 478/3/5 480/3/5
f 482/4/5 480/4/5 481/4/5
f 483/3/5 481/3/5 477/3/5
f 483/3/5 482/3/5 481/3/5
f 484/3/5 478/3/5 482/3/5
f 484/3/5 482/3/5 483/3/5
f 485/3/5 483/3/5 477/3/5
f 485/5/5 484/5/5 483/5/5
f 486/3/5 478/3/5 484/3/5
f 486/5/5 484/5/5 485/5/5
f 487/3/5 485/3/5 477/3/5
f 487/3/5 486/3/5 485/3/5
f 488/3/5 478/3/5 486/3/5
f 488/3/5 486/3/5 487/3/5
f 494/2/5 490/2/5 489/2/5
f 495/2/5 490/2/5 494/2/5
f 498/1/5 492/1/5 491/1/5
f 499/1/5 492/1/5 498/1/5
f 501/2/5 494/2/5 493/2/5
f 502/2/5 494/2/5 501/2/5
f 505/1/5 497/1/5 496/1/5
f 506/1/5 497/1/5 505/1/5
f 509/2/5 501/2/5 500/2/5
f 510/2/5 501/2/5 509/2/5
f 513/1/5 504/1/5 503/1/5
f 514/1/5 504/1/5 513/1/5
f 517/1/5 508/1/5 507/1/5
f 518/1/5 508/1/5 517/1/5
f 519/1/5 512/1/5 511/1/5
f 520/1/5 512/1/5 519/1/5
f 523/1/5 516/1/5 515/1/5
f 524/1/5 516/1/5 523/1/5
f 527/1/5 522/1/5 521/1/5
f 528/1/5 522/1/5 527/1/5
f 529/1/5 526/1/5 525/1/5
f 530/1/5 526/1/5 529/1/5
f 533/2/5 532/2/5 531/2/5
f 534/2/5 532/2/5 533/2/5
f 537/2/5 536/2/5 535/2/5
f 538/2/5 536/2/5 537/2/5
f 539/4/6 540/4/6 541/4/6
f 541/4/6 540/4/6 542/4/6
f 543/5/6 544/5/6 545/5/6
f 545/5/6 544/5/6 546/5/6
f 543/5/6 545/5/6 547/5/6
f 547/5/6 545/5/6 548/5/6
f 546/5/6 544/5/6 549/5/6
f 543/5/6 547/5/6 550/5/6
f 550/5/6 547/5/6 551/5/6
f 548/5/6 549/5/6 552/5/6
f 543/5/6 550/5/6 553/5/6
f 553/5/6 550/5/6 554/5/6
f 554/5/6 550/5/6 555/5/6
f 551/5/6 552/5/6 556/5/6
f 543/5/6 553/5/6 557/5/6
f 557/5/6 553/5/6 558/5/6
f 555/5/6 556/5/6 560/5/6
f 543/5/6 557/5/6 561/5/6
f 561/5/6 557/5/6 562/5/6
f 559/5/6 560/5/6 564/5/6
f 543/5/6 561/5/6 565/5/6
f 565/5/6 561/5/6 566/5/6
f 563/5/6 564/5/6 568/5/6
f 543/5/6 565/5/6 569/5/6
f 569/5/6 565/5/6 570/5/6
f 567/5/6 568/5/6 572/5/6
f 543/5/6 569/5/6 573/5/6
f 573/5/6 569/5/6 574/5/6
f 571/5/6 572/5/6 576/5/6
f 543/5/6 573/5/6 577/5/6
f 577/5/6 573/5/6 578/5/6
f 575/5/6 576/5/6 580/5/6
f 543/5/6 577/5/6 581/5/6
f 581/5/6 577/5/6 582/5/6
f 579/5/6 580/5/6 584/5/6
f 583/5/6 584/5/6 585/5/6
f 585/5/6 584/5/6 586/5/6
f 543/5/6 581/5/6 587/5/6
f 586/5/6 584/5/6 589/5/6
f 584/5/6 580/5/6 590/5/6
f 589/5/6 584/5/6 590/5/6
f 587/5/6 588/5/6 591/5/6
f 590/5/6 580/5/6 594/5/6
f 591/5/6 592/5/6 595/5/6
f 593/5/6 594/5/6 596/5/6
f 591/5/6 595/5/6 597/5/6
f 595/5/6 596/5/6 597/5/6
f 543/5/6 587/5/6 597/5/6
f 587/5/6 591/5/6 597/5/6
f 549/5/6 544/5/6 598/5/6
f 597/5/6 596/5/6 598/5/6
f 552/5/6 549/5/6 598/5/6
f 556/5/6 552/5/6 598/5/6
f 594/5/6 580/5/6 598/5/6
f 560/5/6 556/5/6 598/5/6
f 564/5/6 560/5/6 598/5/6
f 568/5/6 564/5/6 598/5/6
f 596/5/6 594/5/6 598/5/6
f 572/5/6 568/5/6 598/5/6
f 580/5/6 576/5/6 598/5/6
f 576/5/6 572/5/6 598/5/6
f 599/3/6 600/3/6 601/3/6
f 601/3/6 600/3/6 602/3/6
f 599/3/6 601/3/6 603/3/6
f 602/3/6 600/3/6 604/3/6
f 599/3/6 603/3/6 605/3/6
f 603/3/6 604/3/6 605/3/6
f 604/3/6 600/3/6 606/3/6
f 605/3/6 604/3/6 606/3/6
f 607/2/6 608/2/6 609/2/6
f 609/2/6 608/2/6 610/2/6
f 599/3/6 605/3/6 611/3/6
f 606/3/6 600/3/6 612/3/6
f 599/3/6 611/3/6 613/3/6
f 611/3/6 612/3/6 613/3/6
f 612/3/6 600/3/6 614/3/6
f 613/3/6 612/3/6 614/3/6
f 615/2/6 616/2/6 620/2/6
f 620/2/6 616/2/6 621/2/6
f 617/1/6 618/1/6 624/1/6
f 624/1/6 618/1/6 625/1/6
f 619/2/6 620/2/6 628/2/6
f 628/2/6 620/2/6 629/2/6
f 622/1/6 623/1/6 632/1/6
f 632/1/6 623/1/6 633/1/6
f 626/1/6 627/1/6 636/1/6
f 627/2/6 628/2/6 637/2/6
f 636/1/6 627/1/6 637/1/6
f 637/2/6 628/2/6 638/2/6
f 630/1/6 631/1/6 641/1/6
f 641/1/6 631/1/6 642/1/6
f 634/1/6 635/1/6 645/1/6
f 645/1/6 635/1/6 646/1/6
f 639/1/6 640/1/6 648/1/6
f 648/1/6 640/1/6 649/1/6
f 643/1/6 644/1/6 652/1/6
f 652/1/6 644/1/6 653/1/6
f 647/1/6 648/1/6 654/1/6
f 654/1/6 648/1/6 655/1/6
f 650/1/6 651/1/6 658/1/6
f 658/1/6 651/1/6 659/1/6
f 656/1/6 657/1/6 660/1/6
f 660/1/6 657/1/6 661/1/6
f 662/2/6 663/2/6 664/2/6
f 664/2/6 663/2/6 665/2/6
f 666/2/6 667/2/6 669/2/6
f 669/2/6 667/2/6 670/2/6
f 668/2/6 669/2/6 672/2/6
f 672/2/6 669/2/6 673/2/6
f 671/2/6 672/2/6 676/2/6
f 676/2/6 672/2/6 677/2/6
f 674/1/6 675/1/6 679/1/6
f 679/1/6 675/1/6 680/1/6
f 675/2/6 676/2/6 681/2/6
f 680/1/6 675/1/6 681/1/6
f 681/2/6 676/2/6 682/2/6
f 679/1/6 680/1/6 684/1/6
f 678/1/6 679/1/6 684/1/6
f 684/1/6 680/1/6 685/1/6
f 685/1/6 680/1/6 686/1/6
f 683/1/6 684/1/6 688/1/6
f 684/1/6 685/1/6 688/1/6
f 688/1/6 685/1/6 689/1/6
f 689/1/6 685/1/6 690/1/6
f 687/1/6 688/1/6 692/1/6
f 688/1/6 689/1/6 692/1/6
f 692/1/6 689/1/6 693/1/6
f 693/1/6 689/1/6 694/1/6
f 691/1/6 692/1/6 697/1/6
f 692/1/6 693/1/6 697/1/6
f 697/1/6 693/1/6 698/1/6
f 698/1/6 693/1/6 699/1/6
f 695/2/6 696/2/6 701/2/6
f 696/1/6 697/1/6 702/1/6
f 697/1/6 698/1/6 702/1/6
f 701/2/6 696/2/6 702/2/6
f 702/1/6 698/1/6 703/1/6
f 703/1/6 698/1/6 704/1/6
f 700/2/6 701/2/6 706/2/6
f 701/2/6 702/2/6 706/2/6
f 702/2/6 703/2/6 706/2/6
f 706/2/6 703/2/6 707/2/6
f 707/2/6 703/2/6 708/2/6
f 705/2/6 706/2/6 709/2/6
f 706/2/6 707/2/6 709/2/6
f 705/2/6 709/2/6 711/2/6
f 709/2/6 710/2/6 711/2/6
f 711/2/6 710/2/6 712/2/6
f 712/2/6 710/2/6 713/2/6
f 712/2/6 713/2/6 715/2/6
f 713/2/6 714/2/6 715/2/6
f 715/2/6 714/2/6 716/2/6
f 716/2/6 714/2/6 717/2/6
f 717/2/6 714/2/6 718/2/6
f 716/2/6 717/2/6 719/2/6
f 719/2/6 717/2/6 720/2/6
